<svg width="605" height="346" viewBox="0 0 605 346" fill="none" xmlns="http://www.w3.org/2000/svg">
<path d="M200.612 140.164C199.499 141.858 198.748 143.722 198.345 145.649L195.28 145.94V151.868L198.345 152.159C198.74 154.078 199.491 155.942 200.612 157.644L198.66 160.007L202.854 164.201L205.217 162.249C206.911 163.363 208.775 164.113 210.702 164.516L210.993 167.581H216.921L217.212 164.516C219.131 164.113 220.995 163.371 222.697 162.249L225.06 164.201L229.254 160.007L227.302 157.644C228.416 155.95 229.166 154.087 229.569 152.159L232.634 151.868V145.94L229.569 145.649C229.174 143.73 228.424 141.866 227.302 140.164L229.254 137.801L225.06 133.607L222.697 135.559C221.003 134.446 219.131 133.695 217.212 133.292L216.921 130.227H210.993L210.702 133.292C208.783 133.687 206.919 134.438 205.217 135.559L202.854 133.607L198.66 137.801L200.612 140.164ZM219.623 143.222C222.761 146.359 222.761 151.441 219.623 154.571C216.486 157.708 211.404 157.708 208.266 154.571C205.129 151.433 205.129 146.351 208.266 143.213C211.404 140.076 216.486 140.076 219.615 143.213L219.623 143.222Z" fill="#F5F5F5"/>
<path d="M349.294 152.481C348.568 153.587 348.076 154.805 347.818 156.055L345.826 156.24V160.104L347.818 160.289C348.076 161.54 348.568 162.758 349.294 163.863L348.02 165.403L350.754 168.138L352.295 166.863C353.4 167.589 354.618 168.081 355.868 168.339L356.054 170.332H359.917L360.103 168.339C361.353 168.081 362.571 167.589 363.676 166.863L365.217 168.138L367.951 165.403L366.677 163.863C367.402 162.758 367.895 161.54 368.153 160.289L370.145 160.104V156.24L368.153 156.055C367.895 154.805 367.402 153.587 366.677 152.481L367.951 150.941L365.217 148.206L363.676 149.481C362.571 148.755 361.353 148.263 360.103 148.005L359.917 146.012H356.054L355.868 148.005C354.618 148.263 353.4 148.755 352.295 149.481L350.754 148.206L348.02 150.941L349.294 152.481ZM361.684 154.474C363.724 156.515 363.724 159.83 361.684 161.87C359.643 163.911 356.328 163.911 354.287 161.87C352.246 159.83 352.246 156.515 354.287 154.474C356.328 152.433 359.643 152.433 361.684 154.474Z" fill="#F5F5F5"/>
<path d="M373.283 181.463C372.532 182.6 372.032 183.85 371.766 185.141L369.709 185.335V189.311L371.766 189.505C372.032 190.795 372.541 192.046 373.283 193.183L371.968 194.772L374.783 197.587L376.372 196.272C377.509 197.022 378.76 197.522 380.05 197.789L380.244 199.846H384.22L384.414 197.789C385.704 197.522 386.955 197.014 388.092 196.272L389.681 197.587L392.496 194.772L391.181 193.183C391.931 192.046 392.432 190.795 392.698 189.505L394.755 189.311V185.335L392.698 185.141C392.432 183.85 391.923 182.6 391.181 181.463L392.496 179.874L389.681 177.059L388.092 178.374C386.955 177.623 385.704 177.123 384.414 176.857L384.22 174.8H380.244L380.05 176.857C378.76 177.123 377.509 177.631 376.372 178.374L374.783 177.059L371.968 179.874L373.283 181.463ZM386.043 183.52C388.148 185.625 388.148 189.037 386.043 191.142C383.938 193.247 380.526 193.247 378.421 191.142C376.315 189.037 376.315 185.625 378.421 183.52C380.526 181.414 383.938 181.414 386.043 183.52Z" fill="#E0E0E0"/>
<path d="M80.9674 198.41C79.209 201.088 78.0233 204.04 77.3942 207.073L72.5545 207.524V216.897L77.3942 217.357C78.0233 220.398 79.209 223.342 80.9674 226.02L77.8781 229.755L84.5004 236.377L88.235 233.288C90.9129 235.046 93.8651 236.232 96.898 236.861L97.3497 241.7H106.722L107.182 236.861C110.223 236.232 113.167 235.046 115.845 233.288L119.58 236.377L126.202 229.755L123.113 226.02C124.871 223.342 126.057 220.39 126.686 217.357L131.526 216.897V207.524L126.686 207.065C126.057 204.024 124.871 201.08 123.113 198.402L126.202 194.667L119.58 188.045L115.845 191.134C113.159 189.376 110.215 188.19 107.182 187.561L106.722 182.721H97.3497L96.898 187.561C93.8571 188.19 90.9129 189.376 88.235 191.134L84.5004 188.045L77.8781 194.667L80.9674 198.402V198.41ZM111.014 203.249C115.966 208.202 115.966 216.236 111.014 221.188C106.061 226.141 98.0272 226.141 93.0746 221.188C88.1221 216.236 88.1221 208.202 93.0746 203.249C98.0272 198.297 106.061 198.297 111.014 203.249Z" fill="#F5F5F5"/>
<path d="M471.77 203.435C470.64 205.161 469.874 207.057 469.471 209.009L466.357 209.299V215.324L469.471 215.615C469.874 217.567 470.64 219.462 471.77 221.188L469.785 223.592L474.044 227.851L476.448 225.867C478.174 226.996 480.07 227.762 482.022 228.166L482.312 231.279H488.337L488.628 228.166C490.58 227.762 492.475 226.996 494.201 225.867L496.605 227.851L500.864 223.592L498.88 221.188C500.009 219.462 500.775 217.567 501.179 215.615L504.292 215.324V209.299L501.179 209.009C500.775 207.057 500.009 205.161 498.88 203.435L500.864 201.031L496.605 196.772L494.201 198.757C492.475 197.627 490.58 196.861 488.628 196.458L488.337 193.344H482.312L482.022 196.458C480.07 196.861 478.174 197.627 476.448 198.757L474.044 196.772L469.785 201.031L471.77 203.435ZM491.096 206.548C494.282 209.735 494.282 214.905 491.096 218.091C487.91 221.277 482.739 221.277 479.553 218.091C476.367 214.905 476.367 209.735 479.553 206.548C482.739 203.362 487.902 203.362 491.096 206.548Z" fill="#F5F5F5"/>
<path d="M72.6513 252.033C71.756 253.396 71.1591 254.888 70.8364 256.429L68.3763 256.663V261.422L70.8364 261.656C71.1591 263.196 71.756 264.697 72.6513 266.052L71.0784 267.947L74.442 271.311L76.3375 269.738C77.7007 270.633 79.1929 271.23 80.7335 271.553L80.9675 274.013H85.7264L85.9604 271.553C87.501 271.23 89.0013 270.633 90.3564 269.738L92.2519 271.311L95.6155 267.947L94.0426 266.052C94.9379 264.689 95.5348 263.196 95.8575 261.656L98.3176 261.422V256.663L95.8575 256.429C95.5348 254.888 94.9379 253.388 94.0426 252.033L95.6155 250.137L92.2519 246.774L90.3564 248.347C88.9932 247.451 87.501 246.855 85.9604 246.532L85.7264 244.072H80.9675L80.7335 246.532C79.1929 246.855 77.6926 247.451 76.3375 248.347L74.442 246.774L71.0784 250.137L72.6513 252.033ZM87.9043 254.485C90.4209 257.002 90.4209 261.075 87.9043 263.592C85.3877 266.108 81.3062 266.108 78.7977 263.592C76.2891 261.075 76.2811 257.002 78.7977 254.485C81.3143 251.968 85.3877 251.968 87.9043 254.485Z" fill="#E0E0E0"/>
<path d="M379.606 143.883C378.526 145.536 377.792 147.351 377.404 149.223L374.42 149.505V155.28L377.404 155.563C377.792 157.434 378.526 159.249 379.606 160.902L377.703 163.201L381.784 167.283L384.083 165.379C385.737 166.46 387.552 167.194 389.423 167.581L389.705 170.566H395.48L395.763 167.581C397.634 167.194 399.449 166.46 401.103 165.379L403.401 167.283L407.483 163.201L405.579 160.902C406.66 159.249 407.394 157.434 407.781 155.563L410.766 155.28V149.505L407.789 149.223C407.402 147.351 406.668 145.536 405.587 143.883L407.491 141.584L403.409 137.503L401.111 139.406C399.457 138.325 397.642 137.591 395.771 137.204L395.489 134.22H389.713L389.431 137.204C387.56 137.591 385.745 138.325 384.091 139.406L381.792 137.503L377.711 141.584L379.614 143.883H379.606ZM398.118 146.859C401.167 149.908 401.167 154.861 398.118 157.91C395.069 160.959 390.117 160.959 387.068 157.91C384.019 154.861 384.019 149.908 387.068 146.859C390.117 143.81 395.069 143.81 398.118 146.859Z" fill="#E0E0E0"/>
<path d="M133.579 78.8817L57.5764 96.946L70.5078 151.353L146.511 133.288L133.579 78.8817Z" fill="#E0E0E0"/>
<path d="M131.111 81.7152L61.0483 98.3677L72.9706 148.529L143.033 131.876L131.111 81.7152Z" fill="#FAFAFA"/>
<path d="M72.9739 148.521L71.1752 140.955C73.7241 132.429 82.0483 119.507 85.6457 118.483C91.6147 116.781 103.609 125.428 103.609 125.428C103.609 125.428 115.458 104.746 119.273 102.931C125.363 100.044 138.809 114.087 138.809 114.087L143.036 131.864L72.9739 148.521Z" fill="#EBEBEB"/>
<path d="M104.561 104.972C105.085 108.433 102.706 111.667 99.2452 112.191C95.7848 112.716 92.5503 110.336 92.026 106.876C91.5017 103.415 93.8812 100.181 97.3416 99.6566C100.802 99.1323 104.036 101.512 104.561 104.972Z" fill="#EBEBEB"/>
<path d="M497.354 44.4849L401.585 40.5547L398.772 109.115L494.54 113.045L497.354 44.4849Z" fill="#E0E0E0"/>
<path d="M493.505 47.007L405.215 43.3838L402.621 106.593L490.911 110.216L493.505 47.007Z" fill="#FAFAFA"/>
<path d="M402.619 106.609L403.014 97.0754C408.862 87.8558 422.986 75.3615 427.576 75.3453C435.198 75.3211 446.482 89.5174 446.482 89.5174C446.482 89.5174 467.349 69.0296 472.463 68.1584C480.618 66.7711 491.822 87.8316 491.822 87.8316L490.902 110.231L402.611 106.601L402.619 106.609Z" fill="#EBEBEB"/>
<path d="M454.403 65.6741C453.871 69.933 449.991 72.9658 445.724 72.4335C441.465 71.9011 438.432 68.0213 438.965 63.7543C439.497 59.4954 443.377 56.4626 447.644 56.995C451.903 57.5273 454.936 61.4071 454.403 65.6741Z" fill="#EBEBEB"/>
<path d="M549.711 158.145L497.525 148.426L490.568 185.783L542.753 195.502L549.711 158.145Z" fill="#E0E0E0"/>
<path d="M547.401 159.224L499.292 150.264L492.878 184.703L540.987 193.663L547.401 159.224Z" fill="#FAFAFA"/>
<path d="M492.862 184.738L493.83 179.543C497.759 174.945 506.494 169.218 509.011 169.573C513.189 170.162 518.254 178.833 518.254 178.833C518.254 178.833 531.313 169.251 534.185 169.178C538.767 169.057 543.243 181.495 543.243 181.495L540.969 193.699L492.862 184.738Z" fill="#EBEBEB"/>
<path d="M524.481 166.387C523.852 168.686 521.489 170.033 519.19 169.404C516.899 168.775 515.544 166.412 516.173 164.113C516.803 161.814 519.166 160.467 521.465 161.096C523.764 161.725 525.111 164.089 524.481 166.387Z" fill="#EBEBEB"/>
<path d="M283.217 30.0542C283.338 30.0542 283.434 30.151 283.426 30.272C283.426 30.3446 283.386 30.4172 283.322 30.4575L264.657 40.2901L263.769 40.766L254.211 45.7911L221.326 46.8962C221.205 46.8962 221.108 46.7994 221.116 46.6784C221.116 46.6058 221.156 46.5332 221.221 46.4929L249.928 31.377C250.194 31.2318 250.484 31.1593 250.791 31.1512L261.116 30.7963L262.124 30.764L283.217 30.0623V30.0542Z" fill="#E6E6E6"/>
<path d="M269.625 33.8775C268.972 32.8128 261.099 33.9179 251.719 36.4022C242.338 38.8866 234.957 41.8307 234.909 43.0809L238.764 57.6241C238.837 57.8984 239.111 58.0516 239.385 57.9871L273.134 49.0418C273.408 48.9773 273.57 48.703 273.505 48.4288L269.649 33.8775H269.617H269.625Z" fill="#EBEBEB"/>
<path d="M266.786 45.3477L267.601 48.4209L267.359 48.4854L266.681 46.6382L266.996 48.5741L266.592 48.679L265.907 46.8399L266.221 48.7758L265.818 48.8806L265.132 47.0415L265.455 48.9774L265.213 49.0419L264.398 45.9688C264.277 45.4848 264.455 44.9847 264.85 44.6863L261.164 30.7803L262.172 30.748L265.802 44.4362C266.278 44.5169 266.665 44.8718 266.786 45.3396V45.3477Z" fill="#E0E0E0"/>
<path d="M543.437 234.142H397.642C395.037 234.142 392.916 232.021 392.916 229.416V17.0517C392.916 14.4463 395.037 12.325 397.642 12.325H543.437C546.042 12.325 548.164 14.4463 548.164 17.0517V229.408C548.164 232.013 546.042 234.134 543.437 234.134V234.142ZM397.65 12.5266C395.158 12.5266 393.125 14.5593 393.125 17.0517V229.408C393.125 231.9 395.158 233.933 397.65 233.933H543.445C545.937 233.933 547.97 231.9 547.97 229.408V17.0517C547.97 14.5593 545.937 12.5266 543.445 12.5266H397.65Z" fill="#E0E0E0"/>
<path d="M375.323 234.142H229.529C226.923 234.142 224.802 232.021 224.802 229.416V17.0517C224.802 14.4463 226.923 12.325 229.529 12.325H375.323C377.929 12.325 380.05 14.4463 380.05 17.0517V229.408C380.05 232.013 377.929 234.134 375.323 234.134V234.142ZM229.529 12.5266C227.036 12.5266 225.004 14.5593 225.004 17.0517V229.408C225.004 231.9 227.036 233.933 229.529 233.933H375.323C377.816 233.933 379.848 231.9 379.848 229.408V17.0517C379.848 14.5593 377.816 12.5266 375.323 12.5266H229.529Z" fill="#E0E0E0"/>
<path d="M207.307 234.142H61.5201C58.9147 234.142 56.7933 232.021 56.7933 229.416V17.0517C56.7933 14.4463 58.9147 12.325 61.5201 12.325H207.315C209.92 12.325 212.041 14.4463 212.041 17.0517V229.408C212.041 232.013 209.92 234.134 207.315 234.134L207.307 234.142ZM61.5201 12.5266C59.0276 12.5266 56.995 14.5593 56.995 17.0517V229.408C56.995 231.9 59.0276 233.933 61.5201 233.933H207.315C209.807 233.933 211.84 231.9 211.84 229.408V17.0517C211.84 14.5593 209.807 12.5266 207.315 12.5266H61.5201Z" fill="#E0E0E0"/>
<path d="M604.957 283.402H0V283.499H604.957V283.402Z" fill="#E0E0E0"/>
<path d="M572.176 307.092H527.224V307.431H572.176V307.092Z" fill="#EBEBEB"/>
<path d="M411.105 310.779H399.304V311.117H411.105V310.779Z" fill="#EBEBEB"/>
<path d="M91.3969 296.768H32.7806V297.106H91.3969V296.768Z" fill="#EBEBEB"/>
<path d="M112.086 296.768H103.488V297.106H112.086V296.768Z" fill="#EBEBEB"/>
<path d="M267.149 302.503H140.019V302.841H267.149V302.503Z" fill="#EBEBEB"/>
<path d="M580.734 333.823C580.734 336.8 454.71 339.211 299.252 339.211C143.794 339.211 17.7696 336.8 17.7696 333.823C17.7696 330.847 143.794 328.435 299.252 328.435C454.71 328.435 580.734 330.847 580.734 333.823Z" fill="#F5F5F5"/>
<path d="M84.9359 294.678L81.3788 294.178C82.0079 289.742 85.7183 281.345 95.2121 281.345C106.448 281.345 112.046 287.83 112.603 294.275L109.045 294.582C108.634 289.766 104.182 284.902 95.2041 284.902C86.2265 284.902 85.0247 294.283 84.944 294.678H84.9359Z" fill="#263238"/>
<path d="M126.565 291.549H68.7634C65.6005 291.549 63.0365 294.113 63.0365 297.276V327.169C63.0365 330.332 65.6005 332.896 68.7634 332.896H126.565C129.728 332.896 132.292 330.332 132.292 327.169V297.276C132.292 294.113 129.728 291.549 126.565 291.549Z" fill="#263238"/>
<path opacity="0.2" d="M126.565 291.549H68.7634C65.6005 291.549 63.0365 294.113 63.0365 297.276V327.169C63.0365 330.332 65.6005 332.896 68.7634 332.896H126.565C129.728 332.896 132.292 330.332 132.292 327.169V297.276C132.292 294.113 129.728 291.549 126.565 291.549Z" fill="white"/>
<path d="M112.627 333.533C63.6657 333.533 61.2943 299.954 61.2943 299.599L63.2866 295.711C63.3672 296.953 67.2228 329.951 112.667 329.951C131.372 329.951 147.513 329.952 149.15 326.394C150.586 323.249 143.576 315.174 132.332 302.236V297.227C146.658 313.723 154.772 322.595 152.393 327.83C149.876 333.323 139.059 333.533 112.635 333.533H112.627Z" fill="#263238"/>
<path d="M527.99 306.81H523.473V321.66H527.99V306.81Z" fill="#263238"/>
<path d="M525.675 309.198C518.65 309.198 511.737 307.463 505.542 304.14L507.68 300.164C526.329 310.125 549.519 303.092 559.48 284.443C564.328 275.368 565.32 264.721 562.231 254.905C561.021 251.017 559.182 247.347 556.802 244.048C553.39 239.305 548.938 235.409 543.784 232.642L545.913 228.666C548.285 229.94 550.543 231.432 552.64 233.126C555.609 235.522 558.238 238.305 560.464 241.402C563.134 245.096 565.183 249.194 566.538 253.542C573.644 276.086 561.134 300.123 538.589 307.23C534.411 308.544 530.055 309.214 525.675 309.214V309.198Z" fill="#263238"/>
<g opacity="0.3">
<path d="M525.675 309.198C518.65 309.198 511.737 307.463 505.542 304.14L507.68 300.164C526.329 310.125 549.519 303.092 559.48 284.443C564.328 275.368 565.32 264.721 562.231 254.905C561.021 251.017 559.182 247.347 556.802 244.048C553.39 239.305 548.938 235.409 543.784 232.642L545.913 228.666C548.285 229.94 550.543 231.432 552.64 233.126C555.609 235.522 558.238 238.305 560.464 241.402C563.134 245.096 565.183 249.194 566.538 253.542C573.644 276.086 561.134 300.123 538.589 307.23C534.411 308.544 530.055 309.214 525.675 309.214V309.198Z" fill="white"/>
</g>
<path d="M504.09 307.907C503.905 307.907 503.719 307.867 503.558 307.77C503.026 307.471 502.816 306.81 503.098 306.262L546.389 225.504C546.679 224.955 547.365 224.746 547.913 225.036C548.462 225.326 548.672 226.012 548.381 226.56L505.083 307.286C504.889 307.657 504.51 307.891 504.09 307.899V307.907Z" fill="#263238"/>
<g opacity="0.4">
<path d="M504.09 307.907C503.905 307.907 503.719 307.867 503.558 307.77C503.026 307.471 502.816 306.81 503.098 306.262L546.389 225.504C546.679 224.955 547.365 224.746 547.913 225.036C548.462 225.326 548.672 226.012 548.381 226.56L505.083 307.286C504.889 307.657 504.51 307.891 504.09 307.899V307.907Z" fill="white"/>
</g>
<path d="M517.48 320.563H533.983C535.088 320.563 535.984 321.458 535.984 322.563V326.249H515.48V322.563C515.48 321.458 516.375 320.563 517.472 320.563H517.48Z" fill="#263238"/>
<path d="M527.426 233.433C545.631 234.368 559.633 249.888 558.706 268.093C557.77 286.298 542.251 300.301 524.046 299.373C505.841 298.437 491.838 282.918 492.766 264.713C493.701 246.5 509.22 232.505 527.426 233.433Z" fill="#71CDFC"/>
<path opacity="0.2" d="M536.048 235.07C536.524 244.999 533.338 255.719 526.361 264.931C518.634 275.126 507.865 281.337 497.129 282.902C488.047 267.084 493.508 246.895 509.317 237.813C517.44 233.15 527.151 232.15 536.048 235.07Z" fill="white"/>
<g opacity="0.3">
<path d="M517.48 320.563H533.983C535.088 320.563 535.984 321.458 535.984 322.563V326.249H515.48V322.563C515.48 321.458 516.375 320.563 517.472 320.563H517.48Z" fill="white"/>
</g>
<path d="M508.575 325.168H542.896C544.187 325.168 545.227 326.209 545.227 327.5V331.331H506.244V327.5C506.244 326.209 507.285 325.168 508.575 325.168Z" fill="#263238"/>
<g opacity="0.4">
<path d="M508.575 325.168H542.896C544.187 325.168 545.227 326.209 545.227 327.5V331.331H506.244V327.5C506.244 326.209 507.285 325.168 508.575 325.168Z" fill="white"/>
</g>
<path d="M509.011 109.594C515.585 118.523 513.681 131.09 504.76 137.664C497.872 142.746 488.821 142.746 482.022 138.382L476.214 140.003L476.908 133.671C476.843 133.583 476.763 133.502 476.698 133.413C470.124 124.484 472.028 111.917 480.949 105.343C489.878 98.7693 502.445 100.673 509.019 109.594H509.011Z" fill="#71CDFC"/>
<path opacity="0.7" d="M509.011 109.594C515.585 118.523 513.681 131.09 504.76 137.664C497.872 142.746 488.821 142.746 482.022 138.382L476.214 140.003L476.908 133.671C476.843 133.583 476.763 133.502 476.698 133.413C470.124 124.484 472.028 111.917 480.949 105.343C489.878 98.7693 502.445 100.673 509.019 109.594H509.011Z" fill="white"/>
<path d="M510.309 107.642C510.245 107.642 510.18 107.61 510.14 107.553C506.615 102.375 500.372 99.0918 494.113 99.0918C493.943 99.0918 493.774 99.0918 493.597 99.0918C493.5 99.0999 493.395 99.0031 493.387 98.8983C493.387 98.7853 493.467 98.6966 493.58 98.6885C500.138 98.495 506.776 101.883 510.471 107.319C510.535 107.408 510.511 107.537 510.414 107.602C510.382 107.626 510.342 107.634 510.301 107.634L510.309 107.642ZM487.749 99.7533C488.652 99.4064 489.636 99.2532 490.596 99.2935C490.709 99.3016 490.806 99.2128 490.806 99.0999C490.806 98.987 490.725 98.8983 490.612 98.8902C489.588 98.8418 488.555 99.0112 487.603 99.3822C487.499 99.4226 487.45 99.5355 487.49 99.6403C487.523 99.721 487.595 99.7694 487.676 99.7694C487.7 99.7694 487.724 99.7694 487.749 99.7533Z" fill="#71CDFC"/>
<path opacity="0.7" d="M510.309 107.642C510.245 107.642 510.18 107.61 510.14 107.553C506.615 102.375 500.372 99.0918 494.113 99.0918C493.943 99.0918 493.774 99.0918 493.597 99.0918C493.5 99.0999 493.395 99.0031 493.387 98.8983C493.387 98.7853 493.467 98.6966 493.58 98.6885C500.138 98.495 506.776 101.883 510.471 107.319C510.535 107.408 510.511 107.537 510.414 107.602C510.382 107.626 510.342 107.634 510.301 107.634L510.309 107.642ZM487.749 99.7533C488.652 99.4064 489.636 99.2532 490.596 99.2935C490.709 99.3016 490.806 99.2128 490.806 99.0999C490.806 98.987 490.725 98.8983 490.612 98.8902C489.588 98.8418 488.555 99.0112 487.603 99.3822C487.499 99.4226 487.45 99.5355 487.49 99.6403C487.523 99.721 487.595 99.7694 487.676 99.7694C487.7 99.7694 487.724 99.7694 487.749 99.7533Z" fill="white"/>
<path d="M488.313 120.878C488.313 122.371 487.103 123.572 485.619 123.572C484.135 123.572 482.925 122.363 482.925 120.878C482.925 119.394 484.135 118.184 485.619 118.184C487.103 118.184 488.313 119.394 488.313 120.878Z" fill="#71CDFC"/>
<path d="M493.871 123.572C495.359 123.572 496.565 122.366 496.565 120.878C496.565 119.391 495.359 118.184 493.871 118.184C492.383 118.184 491.177 119.391 491.177 120.878C491.177 122.366 492.383 123.572 493.871 123.572Z" fill="#71CDFC"/>
<path d="M502.122 123.572C503.61 123.572 504.816 122.366 504.816 120.878C504.816 119.391 503.61 118.184 502.122 118.184C500.634 118.184 499.428 119.391 499.428 120.878C499.428 122.366 500.634 123.572 502.122 123.572Z" fill="#71CDFC"/>
<path d="M205.258 92.7359C199.047 84.8473 187.391 83.3308 179.237 89.3401C172.937 93.9781 170.59 101.746 172.695 108.675L169.751 113.256L175.55 114.256C175.615 114.337 175.663 114.426 175.728 114.498C181.939 122.387 193.586 123.903 201.749 117.894C209.904 111.885 211.477 100.625 205.266 92.7359H205.258Z" fill="#71CDFC"/>
<path opacity="0.7" d="M205.258 92.7359C199.047 84.8473 187.391 83.3308 179.237 89.3401C172.937 93.9781 170.59 101.746 172.695 108.675L169.751 113.256L175.55 114.256C175.615 114.337 175.663 114.426 175.728 114.498C181.939 122.387 193.586 123.903 201.749 117.894C209.904 111.885 211.477 100.625 205.266 92.7359H205.258Z" fill="white"/>
<path d="M210.751 108.852C210.751 108.852 210.71 108.852 210.686 108.844C210.581 108.812 210.525 108.691 210.557 108.586C212.388 103.125 211.13 96.7286 207.355 92.2923C207.282 92.2116 207.29 92.0825 207.379 92.0099C207.46 91.9373 207.589 91.9454 207.661 92.0341C211.525 96.5753 212.816 103.125 210.936 108.715C210.912 108.795 210.831 108.852 210.743 108.852H210.751ZM208.783 113.684C209.355 112.958 209.775 112.103 210.001 111.215C210.025 111.11 209.96 110.998 209.855 110.973C209.742 110.941 209.638 111.014 209.613 111.119C209.404 111.949 209.008 112.756 208.468 113.433C208.395 113.522 208.412 113.651 208.5 113.716C208.541 113.748 208.581 113.756 208.621 113.756C208.678 113.756 208.742 113.732 208.783 113.675V113.684Z" fill="#71CDFC"/>
<path opacity="0.7" d="M210.751 108.852C210.751 108.852 210.71 108.852 210.686 108.844C210.581 108.812 210.525 108.691 210.557 108.586C212.388 103.125 211.13 96.7286 207.355 92.2923C207.282 92.2116 207.29 92.0825 207.379 92.0099C207.46 91.9373 207.589 91.9454 207.661 92.0341C211.525 96.5753 212.816 103.125 210.936 108.715C210.912 108.795 210.831 108.852 210.743 108.852H210.751ZM208.783 113.684C209.355 112.958 209.775 112.103 210.001 111.215C210.025 111.11 209.96 110.998 209.855 110.973C209.742 110.941 209.638 111.014 209.613 111.119C209.404 111.949 209.008 112.756 208.468 113.433C208.395 113.522 208.412 113.651 208.5 113.716C208.541 113.748 208.581 113.756 208.621 113.756C208.678 113.756 208.742 113.732 208.783 113.675V113.684Z" fill="white"/>
<path d="M194.917 103.214C194.917 104.545 196.03 105.626 197.41 105.626C198.789 105.626 199.902 104.545 199.902 103.214C199.902 101.883 198.789 100.802 197.41 100.802C196.03 100.802 194.917 101.883 194.917 103.214Z" fill="#71CDFC"/>
<path d="M187.286 103.214C187.286 104.545 188.4 105.626 189.779 105.626C191.158 105.626 192.271 104.545 192.271 103.214C192.271 101.883 191.158 100.802 189.779 100.802C188.4 100.802 187.286 101.883 187.286 103.214Z" fill="#71CDFC"/>
<path d="M179.656 103.214C179.656 104.545 180.769 105.626 182.148 105.626C183.528 105.626 184.641 104.545 184.641 103.214C184.641 101.883 183.528 100.802 182.148 100.802C180.769 100.802 179.656 101.883 179.656 103.214Z" fill="#71CDFC"/>
<path d="M343.559 16.8662C329.597 16.7049 318.143 27.8926 317.981 41.855C317.893 49.429 321.208 56.6482 327.016 61.5201C328.08 62.3993 329.718 63.464 329.677 65.6742C329.677 65.7387 329.79 71.1994 329.79 71.1994H356.384C356.384 71.1994 356.497 65.529 356.497 65.4644C356.497 63.5205 358.005 62.6816 359.11 61.8024C364.991 57.0838 368.459 49.9856 368.548 42.4438C368.709 28.4814 357.521 17.0275 343.559 16.8662Z" fill="#71CDFC"/>
<path opacity="0.4" d="M343.559 16.8662C329.597 16.7049 318.143 27.8926 317.981 41.855C317.893 49.429 321.208 56.6482 327.016 61.5201C328.08 62.3993 329.718 63.464 329.677 65.6742C329.677 65.7387 329.79 71.1994 329.79 71.1994H356.384C356.384 71.1994 356.497 65.529 356.497 65.4644C356.497 63.5205 358.005 62.6816 359.11 61.8024C364.991 57.0838 368.459 49.9856 368.548 42.4438C368.709 28.4814 357.521 17.0275 343.559 16.8662Z" fill="white"/>
<path opacity="0.2" d="M356.126 27.7553C356.126 32.6757 350.367 36.6764 343.22 36.6764C336.074 36.6764 330.315 32.6757 330.315 27.7553C330.315 22.835 336.074 18.8262 343.22 18.8262C350.367 18.8262 356.126 22.827 356.126 27.7553Z" fill="white"/>
<path d="M323.821 51.857C321.587 48.0256 320.708 43.4925 321.361 39.1045C322.006 34.7166 324.152 30.6271 327.403 27.6023L327.677 27.9007C324.499 30.861 322.394 34.8618 321.756 39.161C321.119 43.4602 321.974 47.8966 324.168 51.6554L323.821 51.857Z" fill="white"/>
<path d="M350.609 65.7951C349.318 62.3912 348.245 58.8986 347.39 55.3253C346.084 56.4707 344.656 57.0595 343.277 56.9869C342.164 56.9304 341.042 56.4626 339.897 55.5673C339.728 59.0276 339.147 62.4638 338.179 65.787L337.405 65.5612C338.421 62.1008 338.994 58.5114 339.123 54.9058C338.937 54.7284 338.752 54.5509 338.566 54.3493C335.735 51.4052 334.412 47.7512 335.025 44.5893C335.259 43.3875 335.985 42.2179 337.082 42.2179C338.082 42.2421 338.824 43.2261 339.163 44.9926C339.768 48.1465 340.026 51.3568 339.937 54.559C341.115 55.5995 342.228 56.1319 343.317 56.1884C344.955 56.269 346.342 55.2446 347.181 54.43C346.56 51.7117 346.076 48.9531 345.721 46.1622C345.592 45.1539 345.495 44.1699 345.721 43.21C345.987 42.0404 346.745 41.1532 347.649 40.9596C349.205 40.6208 350.472 42.2905 350.907 44.1054C351.77 47.719 350.681 51.8407 348.149 54.5993C348.124 54.6235 348.108 54.6477 348.084 54.6719C348.947 58.3662 350.044 61.9959 351.383 65.5128L350.625 65.7951H350.609ZM337.042 43.0164C336.453 43.0164 335.977 43.8795 335.808 44.7345C335.243 47.6464 336.485 51.0261 339.131 53.7847C339.163 50.897 338.905 47.9932 338.356 45.1378C338.26 44.6458 337.889 43.0406 337.05 43.0164H337.034H337.042ZM348.02 41.7178C347.947 41.7178 347.874 41.7178 347.802 41.742C347.124 41.8872 346.656 42.6696 346.495 43.3794C346.302 44.2102 346.398 45.1136 346.511 46.0412C346.842 48.6143 347.286 51.1713 347.842 53.6879C349.947 51.1551 350.859 47.4366 350.109 44.2747C349.794 42.96 348.947 41.7097 348.02 41.7097V41.7178Z" fill="#263238"/>
<path d="M358.135 69.5942H328.169C327.456 69.5942 326.878 70.1721 326.878 70.8848V71.514C326.878 72.2267 327.456 72.8045 328.169 72.8045H358.135C358.847 72.8045 359.425 72.2267 359.425 71.514V70.8848C359.425 70.1721 358.847 69.5942 358.135 69.5942Z" fill="#263238"/>
<path opacity="0.3" d="M358.135 69.5942H328.169C327.456 69.5942 326.878 70.1721 326.878 70.8848V71.514C326.878 72.2267 327.456 72.8045 328.169 72.8045H358.135C358.847 72.8045 359.425 72.2267 359.425 71.514V70.8848C359.425 70.1721 358.847 69.5942 358.135 69.5942Z" fill="white"/>
<path d="M357.602 72.5142H328.693C327.981 72.5142 327.403 73.092 327.403 73.8047V74.329C327.403 75.0418 327.981 75.6196 328.693 75.6196H357.602C358.315 75.6196 358.893 75.0418 358.893 74.329V73.8047C358.893 73.092 358.315 72.5142 357.602 72.5142Z" fill="#263238"/>
<path opacity="0.3" d="M357.602 72.5142H328.693C327.981 72.5142 327.403 73.092 327.403 73.8047V74.329C327.403 75.0418 327.981 75.6196 328.693 75.6196H357.602C358.315 75.6196 358.893 75.0418 358.893 74.329V73.8047C358.893 73.092 358.315 72.5142 357.602 72.5142Z" fill="white"/>
<path d="M333.162 80.0481C335.154 83.6939 339.357 87.5415 343.503 87.2995C347.657 87.0575 351.553 83.5245 353.101 79.6689L333.162 80.0481Z" fill="#263238"/>
<path d="M355.674 78.1121H330.613C329.9 78.1121 329.322 78.6899 329.322 79.4026V79.9269C329.322 80.6397 329.9 81.2175 330.613 81.2175H355.674C356.387 81.2175 356.965 80.6397 356.965 79.9269V79.4026C356.965 78.6899 356.387 78.1121 355.674 78.1121Z" fill="#263238"/>
<path opacity="0.3" d="M355.674 78.1121H330.613C329.9 78.1121 329.322 78.6899 329.322 79.4026V79.9269C329.322 80.6397 329.9 81.2175 330.613 81.2175H355.674C356.387 81.2175 356.965 80.6397 356.965 79.9269V79.4026C356.965 78.6899 356.387 78.1121 355.674 78.1121Z" fill="white"/>
<path d="M357.183 75.2646H329.121C328.408 75.2646 327.83 75.8425 327.83 76.5552V77.0795C327.83 77.7923 328.408 78.3701 329.121 78.3701H357.183C357.895 78.3701 358.473 77.7923 358.473 77.0795V76.5552C358.473 75.8425 357.895 75.2646 357.183 75.2646Z" fill="#263238"/>
<path opacity="0.3" d="M357.183 75.2646H329.121C328.408 75.2646 327.83 75.8425 327.83 76.5552V77.0795C327.83 77.7923 328.408 78.3701 329.121 78.3701H357.183C357.895 78.3701 358.473 77.7923 358.473 77.0795V76.5552C358.473 75.8425 357.895 75.2646 357.183 75.2646Z" fill="white"/>
<path d="M329.226 7.69498C331.145 9.61471 333.073 11.5425 334.993 13.4622C335.267 13.7365 335.695 13.309 335.42 13.0347C333.501 11.115 331.573 9.18721 329.653 7.26748C329.379 6.99323 328.951 7.42074 329.226 7.69498Z" fill="#263238"/>
<path d="M344.261 11.1957V0.290379C344.261 -0.0967931 343.656 -0.0967931 343.656 0.290379V11.1957C343.656 11.5829 344.261 11.5829 344.261 11.1957Z" fill="#263238"/>
<path d="M352.254 13.9301C354.335 11.849 356.408 9.77604 358.489 7.69498C358.764 7.42074 358.336 6.99323 358.062 7.26748C355.981 9.34853 353.908 11.4215 351.827 13.5026C351.553 13.7768 351.98 14.2043 352.254 13.9301Z" fill="#263238"/>
<path d="M477.851 294.074H126.984V331.638H477.851V294.074Z" fill="#71CDFC"/>
<path d="M247.532 298.002H126.984V327.709H247.532V298.002Z" fill="white"/>
<path d="M126.984 305.326C163.653 304.93 204.782 304.93 241.45 305.326C204.782 305.721 163.653 305.721 126.984 305.326Z" fill="#263238"/>
<path d="M126.984 308.851C163.653 308.455 204.782 308.455 241.45 308.851C204.782 309.246 163.653 309.246 126.984 308.851Z" fill="#263238"/>
<path d="M126.984 312.367C163.653 311.972 204.782 311.972 241.45 312.367C204.782 312.763 163.653 312.763 126.984 312.367Z" fill="#263238"/>
<path d="M126.984 315.892C163.653 315.497 204.782 315.497 241.45 315.892C204.782 316.288 163.653 316.288 126.984 315.892Z" fill="#263238"/>
<path d="M126.984 319.417C163.653 319.022 204.782 319.022 241.45 319.417C204.782 319.813 163.653 319.813 126.984 319.417Z" fill="#263238"/>
<path d="M126.984 322.942C163.653 322.547 204.782 322.547 241.45 322.942C204.782 323.337 163.653 323.337 126.984 322.942Z" fill="#263238"/>
<path d="M126.984 301.801C163.653 301.406 204.782 301.406 241.45 301.801C204.782 302.196 163.653 302.196 126.984 301.801Z" fill="#263238"/>
<path opacity="0.3" d="M289.097 294.074H278.337V331.638H289.097V294.074Z" fill="white"/>
<path opacity="0.3" d="M453.218 294.074H442.457V331.638H453.218V294.074Z" fill="white"/>
<path opacity="0.2" d="M254.364 294.074H126.984V331.638H254.364V294.074Z" fill="black"/>
<path d="M383.825 214.8H179.946V241.555H383.825V214.8Z" fill="#71CDFC"/>
<path d="M265.826 217.599H179.946V238.764H265.826V217.599Z" fill="white"/>
<path d="M179.946 222.81C206.064 222.414 235.377 222.414 261.495 222.81C235.377 223.205 206.064 223.205 179.946 222.81Z" fill="#263238"/>
<path d="M179.946 225.318C206.064 224.923 235.377 224.923 261.495 225.318C235.377 225.713 206.064 225.713 179.946 225.318Z" fill="#263238"/>
<path d="M179.946 227.835C206.064 227.44 235.377 227.44 261.495 227.835C235.377 228.23 206.064 228.23 179.946 227.835Z" fill="#263238"/>
<path d="M179.946 230.343C206.064 229.948 235.377 229.948 261.495 230.343C235.377 230.739 206.064 230.739 179.946 230.343Z" fill="#263238"/>
<path d="M179.946 232.852C206.064 232.457 235.377 232.457 261.495 232.852C235.377 233.247 206.064 233.247 179.946 232.852Z" fill="#263238"/>
<path d="M179.946 235.36C206.064 234.965 235.377 234.965 261.495 235.36C235.377 235.756 206.064 235.756 179.946 235.36Z" fill="#263238"/>
<path d="M179.946 220.301C206.064 219.906 235.377 219.906 261.495 220.301C235.377 220.696 206.064 220.696 179.946 220.301Z" fill="#263238"/>
<path opacity="0.3" d="M375.541 214.8H367.87V241.555H375.541V214.8Z" fill="black"/>
<path opacity="0.3" d="M294.001 214.8H286.33V241.555H294.001V214.8Z" fill="black"/>
<path opacity="0.2" d="M270.698 214.8H179.946V241.555H270.698V214.8Z" fill="black"/>
<path opacity="0.3" d="M360.127 224.245H300.817V232.078H360.127V224.245Z" fill="black"/>
<path d="M391.738 278.337H105.569V294.082H391.738V278.337Z" fill="#263238"/>
<path d="M225.81 280.369H105.569V292.049H225.81V280.369Z" fill="white"/>
<path d="M106.392 282.684C143.06 282.289 184.189 282.289 220.858 282.684C184.189 283.08 143.06 283.08 106.392 282.684Z" fill="#263238"/>
<path d="M106.392 286.209C143.06 285.814 184.189 285.814 220.858 286.209C184.189 286.605 143.06 286.605 106.392 286.209Z" fill="#263238"/>
<path d="M106.392 289.726C143.06 289.331 184.189 289.331 220.858 289.726C184.189 290.121 143.06 290.121 106.392 289.726Z" fill="#263238"/>
<path opacity="0.3" d="M259.978 278.337H256.953V294.082H259.978V278.337Z" fill="white"/>
<path opacity="0.3" d="M265.608 278.337H262.584V294.082H265.608V278.337Z" fill="white"/>
<path opacity="0.3" d="M372.476 278.337H369.451V294.082H372.476V278.337Z" fill="white"/>
<path opacity="0.3" d="M378.106 278.337H375.081V294.082H378.106V278.337Z" fill="white"/>
<path opacity="0.2" d="M228.73 278.329H105.553V294.074H228.73V278.329Z" fill="black"/>
<path d="M447.289 241.418H161.12V257.163H447.289V241.418Z" fill="#263238"/>
<path d="M281.361 243.451H161.12V255.131H281.361V243.451Z" fill="white"/>
<path d="M161.943 245.766C198.611 245.371 239.74 245.371 276.409 245.766C239.74 246.161 198.611 246.161 161.943 245.766Z" fill="#263238"/>
<path d="M161.943 249.291C198.611 248.896 239.74 248.896 276.409 249.291C239.74 249.686 198.611 249.686 161.943 249.291Z" fill="#263238"/>
<path d="M161.943 252.816C198.611 252.42 239.74 252.42 276.409 252.816C239.74 253.211 198.611 253.211 161.943 252.816Z" fill="#263238"/>
<path opacity="0.3" d="M315.529 241.418H312.505V257.163H315.529V241.418Z" fill="white"/>
<path opacity="0.3" d="M321.16 241.418H318.135V257.163H321.16V241.418Z" fill="white"/>
<path opacity="0.3" d="M428.035 241.418H425.01V257.163H428.035V241.418Z" fill="white"/>
<path opacity="0.3" d="M433.665 241.418H430.641V257.163H433.665V241.418Z" fill="white"/>
<path opacity="0.2" d="M284.281 241.41H161.104V257.155H284.281V241.41Z" fill="black"/>
<path d="M117.386 278.49L403.555 278.49V257.01L117.386 257.01V278.49Z" fill="#71CDFC"/>
<path opacity="0.4" d="M117.386 278.49L403.555 278.49V257.01L117.386 257.01V278.49Z" fill="white"/>
<path d="M283.322 276.457H403.563V259.478H283.322V276.457Z" fill="white"/>
<path d="M402.74 267.093C366.071 267.488 324.943 267.488 288.274 267.093C324.943 266.697 366.071 266.697 402.74 267.093Z" fill="#263238"/>
<path d="M402.74 270.617C366.071 271.013 324.943 271.013 288.274 270.617C324.943 270.222 366.071 270.222 402.74 270.617Z" fill="#263238"/>
<path d="M402.74 274.142C366.071 274.538 324.943 274.538 288.274 274.142C324.943 273.747 366.071 273.747 402.74 274.142Z" fill="#263238"/>
<path d="M402.74 263.439C366.071 263.834 324.943 263.834 288.274 263.439C324.943 263.043 366.071 263.043 402.74 263.439Z" fill="#263238"/>
<path opacity="0.2" d="M280.402 278.474H403.579V256.994H280.402V278.474Z" fill="black"/>
<path opacity="0.4" d="M255.873 263.439H142.971V270.618H255.873V263.439Z" fill="white"/>
<path d="M449.951 257.712C449.951 257.712 365.967 240.628 362.514 258.123C357.586 283.088 418.251 297.994 450.273 296.034C482.296 294.066 449.951 257.72 449.951 257.72V257.712Z" fill="#263238"/>
<path opacity="0.2" d="M449.951 257.712C449.951 257.712 365.967 240.628 362.514 258.123C357.586 283.088 418.251 297.994 450.273 296.034C482.296 294.066 449.951 257.72 449.951 257.72V257.712Z" fill="black"/>
<path opacity="0.2" d="M390.036 262.672L429.939 286.411L424.93 293.993C424.93 293.993 427.801 297.994 432.673 285.306L407.967 270.004C407.967 270.004 415.533 269.02 415.307 267.843C414.928 265.907 398.158 262.688 390.504 261.244C390.109 261.115 389.681 261.333 389.552 261.728C389.423 262.124 389.641 262.551 390.036 262.68V262.672Z" fill="black"/>
<path opacity="0.2" d="M431.278 283.563L424.809 294.775C433.23 295.993 441.764 296.413 450.273 296.025C453.072 295.929 455.831 295.34 458.412 294.299L460.671 289.863L455.226 279.676L431.278 283.563Z" fill="black"/>
<path d="M418.178 279.571L435.932 290.105L433.06 298.655L412.331 290.065L418.178 279.571Z" fill="#EBB373"/>
<path d="M445.603 292.654L444.071 298.784C444.071 298.784 442.796 299.091 442.433 300.381C442.232 301.107 442.82 303.075 442.82 303.075L438.739 319.966C438.739 319.966 437.577 319.691 437.126 319.377C436.569 318.998 436.117 318.611 435.755 318.215C434.472 316.82 434.278 314.755 434.19 313.222C434.036 310.649 432.335 303.188 432.335 303.188C432.335 303.188 431.713 301.244 429.592 299.583C428.414 298.655 427.842 297.453 427.93 296.703C428.1 295.162 429.189 294.557 430.625 294.687L432.294 294.84C433.456 293.92 433.778 292.412 432.98 290.984C432.98 290.984 431.891 287.362 433.44 287.935C434.327 288.258 438.223 289.863 441.336 291.033C442.062 291.307 442.748 291.565 443.353 291.791C444.692 292.299 445.611 292.646 445.611 292.646L445.603 292.654Z" fill="#263238"/>
<path d="M433.085 307.181C433.036 307.092 433.052 306.971 433.133 306.899C433.48 306.56 433.923 306.31 434.416 306.189C434.682 306.124 434.811 306.544 434.545 306.608C434.101 306.713 433.714 306.931 433.407 307.229C433.302 307.326 433.149 307.31 433.077 307.189L433.085 307.181Z" fill="#71CDFC"/>
<path d="M432.697 305.705C432.649 305.616 432.673 305.495 432.746 305.423C433.093 305.084 433.536 304.834 434.028 304.713C434.295 304.648 434.424 305.068 434.157 305.132C433.714 305.237 433.327 305.455 433.02 305.753C432.915 305.85 432.762 305.834 432.689 305.713L432.697 305.705Z" fill="#71CDFC"/>
<path d="M432.367 304.205C432.318 304.116 432.334 303.995 432.415 303.922C432.762 303.584 433.206 303.334 433.698 303.213C433.964 303.148 434.093 303.567 433.827 303.632C433.383 303.737 432.996 303.955 432.689 304.253C432.584 304.35 432.431 304.334 432.359 304.213L432.367 304.205Z" fill="#71CDFC"/>
<path opacity="0.2" d="M443.345 291.799C444.684 292.307 445.603 292.654 445.603 292.654L444.071 298.784C444.071 298.784 442.796 299.091 442.433 300.381C442.232 301.107 442.82 303.075 442.82 303.075L438.739 319.966C438.739 319.966 437.577 319.692 437.126 319.377C436.868 319.208 436.642 319.03 436.432 318.853L443.022 291.67C443.135 291.71 443.256 291.759 443.361 291.799H443.345Z" fill="white"/>
<path d="M430.003 305.479C429.576 305.479 429.164 305.366 428.842 305.148C428.584 304.979 428.326 304.664 428.39 304.317C428.455 303.979 428.769 303.785 429.035 303.68C429.56 303.471 430.181 303.414 430.875 303.519C431.479 303.608 432.068 303.809 432.641 303.995L432.818 304.059L432.673 304.172C432.334 304.43 431.181 305.285 430.568 305.414C430.382 305.455 430.197 305.479 430.011 305.479H430.003ZM430.205 303.664C429.802 303.664 429.431 303.729 429.1 303.858C428.931 303.922 428.632 304.084 428.584 304.342C428.535 304.592 428.745 304.834 428.947 304.971C429.366 305.253 429.939 305.342 430.512 305.213C431.02 305.1 431.98 304.422 432.383 304.116C431.875 303.946 431.359 303.785 430.834 303.704C430.616 303.672 430.407 303.656 430.197 303.656L430.205 303.664Z" fill="#71CDFC"/>
<path d="M432.714 304.221L432.56 304.108C432.076 303.745 431.584 303.374 431.165 302.93C430.681 302.422 430.374 301.882 430.245 301.325C430.181 301.051 430.157 300.68 430.407 300.438C430.657 300.188 431.06 300.22 431.35 300.333C431.867 300.535 432.31 300.994 432.552 301.591C432.794 302.18 432.746 303.608 432.73 304.035V304.229L432.714 304.221ZM430.899 300.446C430.762 300.446 430.633 300.478 430.536 300.575C430.35 300.76 430.391 301.091 430.431 301.277C430.552 301.793 430.842 302.301 431.294 302.785C431.657 303.172 432.093 303.503 432.512 303.826C432.536 303.011 432.512 302.059 432.343 301.664C432.117 301.123 431.722 300.704 431.254 300.518C431.141 300.478 431.012 300.446 430.891 300.446H430.899Z" fill="#71CDFC"/>
<path d="M413.928 205.661C413.928 205.661 411.677 232.868 410.911 234.344C408.306 239.345 390.318 248.315 390.318 248.315L380.961 246.645L374.46 252.404L378.953 255.719L384.051 253.622C386.882 254.042 389.737 254.203 392.593 254.114C397.392 253.969 421.332 247.984 425.002 241.418C428.672 234.852 428.624 204.322 428.624 204.322L413.92 205.661H413.928Z" fill="#EBB373"/>
<path d="M429.366 215.873C429.366 215.873 435.811 191.844 426.712 185.496C417.614 179.148 411.5 212.098 411.5 212.098L429.366 215.873Z" fill="#71CDFC"/>
<path opacity="0.5" d="M429.366 215.873C429.366 215.873 435.811 191.844 426.712 185.496C417.614 179.148 411.5 212.098 411.5 212.098L429.366 215.873Z" fill="white"/>
<path d="M425.01 259.599L424.147 228.028L423.551 184.786L442.078 180.188L455.057 180.067L477.005 186.899L477.747 197.49C477.747 197.49 477.069 246.25 477.23 247.718C477.432 249.516 482.998 260.656 482.998 260.656C459.824 266.657 424.68 261.212 424.994 259.591L425.01 259.599Z" fill="#71CDFC"/>
<path opacity="0.2" d="M424.018 214.743L423.704 195.917L420.397 213.977L424.018 214.743Z" fill="black"/>
<path opacity="0.2" d="M463.591 216.55C463.01 216.453 460.655 215.76 460.655 215.76L466.01 197.409L457.719 217.567L463.115 219.535L463.583 216.55H463.591Z" fill="black"/>
<path d="M465.647 201.555C465.647 201.555 462.01 231.795 459.477 234.683C455.202 239.571 433.698 252.832 433.698 252.832L422.663 249.323C421.889 249.097 421.05 249.258 420.437 249.75L413.137 255.671L413.871 256.252C414.186 256.502 414.637 256.542 414.992 256.348L416.138 255.735L414.879 257.042L415.299 257.373C415.718 257.704 416.291 257.816 416.807 257.655L420.122 256.663L417.106 258.8C417.807 259.357 418.775 259.535 419.647 259.26L424.486 257.728C427.842 258.389 431.246 258.776 434.666 258.881C440.425 259.067 467.301 248.774 472.157 241.684C477.013 234.586 481.384 205.588 481.384 205.588L465.647 201.547V201.555Z" fill="#EBB373"/>
<path d="M480.691 221.156C480.691 221.156 486.652 193.675 477.553 187.319C468.454 180.971 460.655 215.752 460.655 215.752L480.691 221.156Z" fill="#71CDFC"/>
<path opacity="0.5" d="M480.691 221.156C480.691 221.156 486.652 193.675 477.553 187.319C468.454 180.971 460.655 215.752 460.655 215.752L480.691 221.156Z" fill="white"/>
<path d="M408.838 257.994L425.632 257.502L443.45 256.978C443.482 258.308 442.038 259.422 440.223 259.47L422.421 259.994L412.234 260.293H412.185L383.841 261.132C382.042 261.172 380.566 260.148 380.534 258.833L408.838 258.002V257.994Z" fill="#263238"/>
<path d="M383.325 261.003L414.944 260.067C415.492 260.051 415.92 259.68 415.904 259.236C415.904 259.155 415.88 259.075 415.847 258.994L400.828 227.157C400.449 226.246 399.368 225.649 398.166 225.681L366.523 226.617C365.991 226.633 365.563 226.996 365.579 227.423C365.579 227.512 365.604 227.601 365.644 227.69L380.663 259.526C381.05 260.43 382.123 261.027 383.325 261.003Z" fill="#263238"/>
<path opacity="0.7" d="M366.523 226.617L398.166 225.681C399.368 225.649 400.449 226.246 400.828 227.157L415.283 257.792L425.64 257.486L443.458 256.961C443.49 258.292 442.046 259.406 440.231 259.454L422.429 259.978L412.242 260.277H412.193L383.849 261.116C383.276 261.132 382.752 261.027 382.276 260.849C381.534 260.623 380.929 260.148 380.663 259.518L365.644 227.682C365.604 227.601 365.579 227.512 365.579 227.415C365.563 226.988 365.991 226.625 366.523 226.609V226.617Z" fill="white"/>
<path d="M386.035 243.233C386.761 244.758 388.181 245.782 389.205 245.532C390.229 245.282 390.463 243.87 389.754 242.338C389.044 240.805 387.616 239.805 386.584 240.055C385.559 240.305 385.285 241.668 386.027 243.233H386.035Z" fill="white"/>
<g opacity="0.3">
<path d="M400.828 227.165L415.283 257.8L413.815 257.841L398.167 225.681C399.368 225.649 400.449 226.246 400.828 227.157V227.165Z" fill="black"/>
</g>
<path d="M455.613 182.366C455.613 182.366 452.258 175.72 454.427 164.718C453.097 164.097 454.855 161.346 454.798 160.241L440.917 170.598C441.562 174.002 440.909 180.737 440.417 183.6L445.773 188.464L455.605 182.366H455.613Z" fill="#EBB373"/>
<path opacity="0.2" d="M441.288 172.639L449.338 171.993C447.983 174.381 447.023 176.478 441.135 176.72C441.135 176.72 441.086 173.776 441.288 172.631V172.639Z" fill="black"/>
<path d="M435.738 139.866C433.262 142.786 432.189 151.207 437.827 150.933C443.474 150.667 439.989 134.849 435.738 139.866Z" fill="#263238"/>
<path d="M458.961 155.53C455.839 164.387 454.258 169.453 448.386 172.735C423.817 182.705 426.486 140.624 445.49 138.213C455.186 137.245 462.082 146.666 458.961 155.53Z" fill="#EBB373"/>
<path d="M466.236 144.294C464.962 135.656 450.927 136.091 446.724 137.64C446.095 137.874 452.419 143.681 452.016 143.383L455.145 145.577C459.558 147.811 451.596 154.925 455.395 162.637C463.792 161.548 466.882 150.594 466.236 144.294Z" fill="#263238"/>
<path d="M460.38 164.064C457.952 168.589 449.144 169.783 451.435 162.798C453.234 155.926 463.905 155.966 460.38 164.064Z" fill="#EBB373"/>
<path d="M445.514 154.49C444.909 156.676 442.691 155.998 443.337 153.845C443.942 151.659 446.16 152.336 445.514 154.49Z" fill="#263238"/>
<path d="M436.158 152.054C435.553 154.24 433.335 153.562 433.98 151.409C434.585 149.223 436.803 149.9 436.158 152.054Z" fill="#263238"/>
<path d="M439.304 152.385C439.304 152.385 435.077 156.135 433.609 157.741C434.561 159.265 436.924 159.362 436.924 159.362L439.304 152.385Z" fill="#E4873E"/>
<path d="M448.805 150.755C448.652 150.771 448.491 150.707 448.386 150.57C447.2 148.949 445.547 149.005 445.531 149.005C443.74 147.819 447.466 147.561 449.112 150.046C449.322 150.312 449.136 150.723 448.805 150.755Z" fill="#263238"/>
<path opacity="0.2" d="M454.145 162.709C454.145 162.709 454.105 162.709 454.081 162.701C453.976 162.669 453.919 162.556 453.952 162.451C454.379 161.112 455.96 159.805 457.275 159.709C457.888 159.668 458.694 159.838 459.211 160.894C459.259 160.991 459.211 161.112 459.122 161.161C459.025 161.209 458.904 161.169 458.856 161.072C458.517 160.386 458.001 160.064 457.307 160.112C456.162 160.193 454.718 161.394 454.339 162.572C454.315 162.661 454.234 162.709 454.145 162.709Z" fill="black"/>
<path d="M433.327 147.029C433.02 146.875 433.012 146.391 433.327 146.23C435.496 145.044 437.311 146.028 437.4 146.061C437.908 146.327 437.489 147.134 436.981 146.859C436.739 146.472 434.988 146.512 433.335 147.029H433.327Z" fill="#263238"/>
<path d="M462.615 158.12C462.615 158.12 456.388 149.223 448.781 145.077C440.36 140.487 434.198 141.85 434.198 141.85C434.198 141.85 432.754 140.439 433.681 139.64C434.609 138.842 435.472 139.543 435.472 139.543C435.472 139.543 444.506 129.921 455.282 132.994C466.067 136.067 469.656 142.73 469.221 143.214C467.003 145.674 465.728 141.858 465.728 141.858C465.728 141.858 468.35 145.351 465.325 152.498L464.429 155.297C464.429 155.297 465.172 158.563 462.607 158.128L462.615 158.12Z" fill="#263238"/>
<path opacity="0.7" d="M462.615 158.12C462.615 158.12 456.388 149.223 448.781 145.077C440.36 140.487 434.198 141.85 434.198 141.85C434.198 141.85 432.754 140.439 433.681 139.64C434.609 138.842 435.472 139.543 435.472 139.543C435.472 139.543 444.506 129.921 455.282 132.994C466.067 136.067 469.656 142.73 469.221 143.214C467.003 145.674 465.728 141.858 465.728 141.858C465.728 141.858 468.35 145.351 465.325 152.498L464.429 155.297C464.429 155.297 465.172 158.563 462.607 158.128L462.615 158.12Z" fill="white"/>
<path d="M448.604 144.682C447.45 144.294 446.595 143.141 446.563 141.923C446.539 141.124 446.829 140.358 447.039 139.584C447.24 138.809 447.353 137.954 446.99 137.237C446.676 136.632 446.022 136.212 445.337 136.188C444.651 136.164 443.974 136.535 443.619 137.116C443.877 136.632 443.699 136.019 443.345 135.607C442.99 135.196 442.482 134.946 441.989 134.712C441.11 134.284 440.118 133.841 439.174 134.123C438.231 134.405 437.642 135.333 437.311 136.261C436.892 137.454 436.779 138.793 437.206 139.979C437.779 141.576 439.255 142.705 440.844 143.286C442.433 143.867 444.151 143.964 445.845 144.06" fill="#263238"/>
<path opacity="0.2" d="M466.075 142.479C466.075 142.479 464.849 138.39 459.791 136.341L466.075 142.479Z" fill="black"/>
<path opacity="0.3" d="M463.841 155.119C460.8 149.15 454.444 143.125 448.015 140.124L448.104 139.939C454.565 142.955 460.961 149.013 464.026 155.022L463.849 155.111L463.841 155.119Z" fill="black"/>
<path d="M437.642 162.725C438.303 163.887 438.876 165.105 439.368 166.347C439.594 166.299 439.836 166.258 440.062 166.194C443.191 165.492 444.417 164.137 444.805 162.838C444.982 162.201 445.014 161.532 444.885 160.878C444.821 160.507 444.708 160.152 444.546 159.813C443.111 161.177 440.247 162.056 438.699 162.459C438.021 162.604 437.634 162.717 437.634 162.717L437.642 162.725Z" fill="#263238"/>
<path d="M438.666 162.435L439.207 163.492C442.143 162.822 444.127 161.975 444.853 160.854C444.788 160.483 444.675 160.128 444.514 159.789C443.07 161.169 440.215 162.032 438.666 162.435Z" fill="white"/>
<path d="M440.021 166.169C443.151 165.468 444.377 164.113 444.764 162.814C443.579 163.104 442.457 163.596 441.449 164.274C440.788 164.742 440.288 165.403 440.021 166.161V166.169Z" fill="#C15854"/>
<path d="M401.159 294.017L380.889 297.897L377.372 289.589L398.586 282.281L401.159 294.017Z" fill="#EBB373"/>
<path d="M371.96 302.398L369.04 296.792C369.04 296.792 369.79 295.711 369.209 294.509C368.879 293.832 367.136 292.751 367.136 292.751L358.998 277.393C358.998 277.393 360.046 276.828 360.595 276.764C361.256 276.675 361.853 276.667 362.393 276.724C364.273 276.917 365.789 278.337 366.878 279.426C368.693 281.249 374.92 285.709 374.92 285.709C374.92 285.709 376.67 286.75 379.356 286.588C380.857 286.5 382.075 287.024 382.51 287.645C383.406 288.911 382.994 290.089 381.833 290.944L380.478 291.936C380.219 293.396 380.978 294.743 382.518 295.276C382.518 295.276 385.737 297.26 384.204 297.865C383.325 298.204 379.348 299.591 376.235 300.777C375.509 301.051 374.823 301.317 374.218 301.543C372.879 302.051 371.968 302.398 371.968 302.398H371.96Z" fill="#263238"/>
<path d="M371.702 283.225C371.798 283.265 371.863 283.362 371.855 283.467C371.823 283.951 371.661 284.435 371.363 284.854C371.21 285.072 370.831 284.854 370.984 284.628C371.242 284.257 371.387 283.838 371.419 283.41C371.427 283.265 371.565 283.176 371.694 283.225H371.702Z" fill="#71CDFC"/>
<path d="M372.968 284.072C373.065 284.112 373.129 284.209 373.121 284.314C373.089 284.798 372.928 285.282 372.629 285.701C372.476 285.919 372.097 285.701 372.25 285.475C372.508 285.104 372.653 284.685 372.686 284.257C372.694 284.112 372.831 284.023 372.96 284.072H372.968Z" fill="#71CDFC"/>
<path d="M374.21 284.983C374.307 285.016 374.372 285.12 374.363 285.225C374.331 285.709 374.17 286.193 373.871 286.613C373.718 286.83 373.339 286.613 373.492 286.387C373.75 286.016 373.896 285.596 373.928 285.169C373.936 285.024 374.073 284.935 374.202 284.983H374.21Z" fill="#71CDFC"/>
<path opacity="0.2" d="M369.209 294.509C368.879 293.832 367.136 292.751 367.136 292.751L358.998 277.393C358.998 277.393 360.046 276.828 360.595 276.764C360.901 276.723 361.192 276.707 361.466 276.699L374.557 301.414C374.444 301.454 374.323 301.502 374.218 301.543C372.879 302.051 371.96 302.398 371.96 302.398L369.04 296.792C369.04 296.792 369.79 295.711 369.209 294.509Z" fill="white"/>
<path d="M373.976 285.386L374.009 285.201C374.089 284.782 374.388 283.386 374.759 282.87C375.138 282.346 375.67 282.007 376.227 281.934C376.533 281.894 376.937 281.958 377.114 282.257C377.251 282.483 377.235 282.805 377.058 283.16C376.799 283.668 376.372 284.12 375.783 284.499C375.267 284.838 374.694 285.072 374.146 285.306L373.968 285.378L373.976 285.386ZM376.404 282.128C376.356 282.128 376.307 282.128 376.259 282.136C375.759 282.2 375.275 282.515 374.928 282.991C374.67 283.346 374.42 284.257 374.251 285.056C374.743 284.846 375.235 284.628 375.686 284.338C376.243 283.975 376.646 283.555 376.888 283.08C376.969 282.91 377.09 282.596 376.953 282.37C376.848 282.192 376.622 282.128 376.412 282.128H376.404Z" fill="#71CDFC"/>
<path d="M376.88 287.314C376.525 287.314 376.162 287.226 375.807 287.056C375.243 286.782 374.323 285.677 374.057 285.346L373.936 285.201L374.121 285.185C374.726 285.136 375.339 285.08 375.952 285.136C376.654 285.201 377.235 285.403 377.703 285.733C378.025 285.959 378.195 286.233 378.171 286.508C378.146 286.863 377.824 287.105 377.533 287.209C377.324 287.282 377.098 287.322 376.872 287.322L376.88 287.314ZM374.339 285.362C374.864 285.991 375.509 286.677 375.896 286.871C376.42 287.129 377.001 287.177 377.469 287.008C377.703 286.919 377.961 286.742 377.977 286.483C377.993 286.217 377.743 285.999 377.59 285.887C377.154 285.58 376.606 285.386 375.936 285.33C375.404 285.282 374.864 285.314 374.331 285.362H374.339Z" fill="#71CDFC"/>
<path d="M477.424 282.475C481.61 275.352 490.983 256.099 470.721 253.001C450.467 249.904 384.091 283.878 384.091 283.878L388.737 296.598L451.104 284.87C451.104 284.87 442.869 296.566 453.25 295.743C468.333 293.799 471.858 290.073 477.424 282.475Z" fill="#263238"/>
<path opacity="0.2" d="M449.628 285.257L466.656 279.345C466.656 279.345 452.492 288.589 447.233 289.799L449.62 285.257H449.628Z" fill="black"/>
<path d="M325.459 114.764L331.557 107.707L337.768 109.901L333.533 118.16L325.459 114.764Z" fill="#EEC1BB"/>
<path d="M330.637 107.118C330.637 107.118 330.105 103.924 331.694 101.762C333.275 99.6002 333.969 97.4546 335.251 95.9301C336.542 94.4056 336.566 97.0997 336.292 98.5354C336.017 99.9712 335.719 101.601 336.832 101.633C337.945 101.665 346.374 97.14 347.915 97.3659C349.455 97.5836 348.318 98.7452 348.318 98.7452C348.318 98.7452 350.399 97.7046 351.036 98.4145C351.206 98.6 351.286 99.2937 350.415 99.9228C348.455 101.326 344.18 104.061 344.18 104.061C344.422 103.899 349.931 100.899 350.819 100.56C351.972 100.116 352.746 100.496 352.98 101.173C353.319 102.141 346.608 106.085 346.447 106.448C346.447 106.448 350.23 104.045 351.383 104.682C352.537 105.319 350.238 106.965 347.939 108.021C345.826 108.997 341.938 111.457 339.695 112.24C336.929 113.2 334.864 113.232 332.968 111.248C331.073 109.263 330.637 107.126 330.637 107.126V107.118Z" fill="#EEC1BB"/>
<path opacity="0.3" d="M343.261 101.826C343.261 101.826 343.196 101.81 343.18 101.778C343.148 101.73 343.164 101.665 343.212 101.641C344.769 100.617 346.39 99.6567 348.028 98.7855C348.076 98.7613 348.141 98.7855 348.165 98.8259C348.189 98.8743 348.165 98.9388 348.125 98.963C346.495 99.8341 344.874 100.794 343.325 101.81C343.309 101.818 343.293 101.826 343.269 101.826H343.261Z" fill="black"/>
<path opacity="0.3" d="M345.051 107.569C345.003 107.569 344.963 107.537 344.955 107.489C344.422 105.174 343.18 102.996 341.462 101.359C341.422 101.318 341.422 101.254 341.462 101.213C341.502 101.173 341.567 101.173 341.607 101.213C343.357 102.875 344.624 105.093 345.164 107.448C345.18 107.505 345.14 107.553 345.092 107.569C345.092 107.569 345.075 107.569 345.067 107.569H345.051Z" fill="black"/>
<path opacity="0.3" d="M334.848 108.069C334.848 108.069 334.783 108.053 334.759 108.021C334.735 107.973 334.751 107.908 334.799 107.884C335.622 107.408 336.275 106.618 336.606 105.722C336.937 104.827 336.937 103.802 336.622 102.907C336.606 102.851 336.63 102.794 336.687 102.778C336.743 102.762 336.8 102.786 336.816 102.843C337.146 103.786 337.146 104.859 336.8 105.795C336.461 106.73 335.767 107.561 334.904 108.061C334.888 108.069 334.872 108.078 334.856 108.078L334.848 108.069Z" fill="black"/>
<path d="M352.045 229.456L355.198 220.011L332.379 207.282L327.427 221.608L352.045 229.456Z" fill="#EEC1BB"/>
<path d="M352.383 216.72L350.706 219.833C350.326 220.535 350.335 221.382 350.681 222.108C352.166 225.221 350.52 226.076 347.157 226.786C346.342 227.948 347.592 229.053 347.915 229.359L355.134 236.24C355.731 236.82 356.691 236.812 357.271 236.207C357.376 236.103 357.465 235.982 357.529 235.845C359.562 232.062 360.522 230.271 363.055 225.56L370.798 211.162C372.912 207.234 369.387 204.298 368.153 205.718C362.635 212.122 357.731 216.123 354.408 217.236C353.811 217.454 353.763 216.873 352.375 216.712L352.383 216.72Z" fill="#263238"/>
<path d="M358.425 211.251C358.368 210.799 358.094 210.396 357.691 210.178C357.489 210.033 357.223 210.017 357.005 210.138C355.787 210.743 355.513 215.615 355.497 216.171C355.489 216.228 355.505 216.284 355.545 216.333C355.618 216.413 355.739 216.421 355.819 216.349C356.561 215.51 357.215 214.607 357.763 213.631C358.231 212.929 358.465 212.098 358.425 211.259V211.251ZM357.166 210.533C357.255 210.477 357.376 210.493 357.457 210.557C357.739 210.727 357.933 211.017 357.989 211.34C358.175 212.582 356.739 214.566 355.908 215.599C356.061 213.598 356.497 210.872 357.166 210.533Z" fill="#71CDFC"/>
<path d="M355.932 216.228C356.069 214.792 355.464 211.315 354.384 210.896C354.158 210.799 353.819 210.815 353.464 211.307C352.069 213.316 355.416 216.284 355.577 216.373C355.634 216.429 355.715 216.445 355.787 216.421C355.819 216.389 355.844 216.349 355.852 216.3L355.932 216.228ZM353.738 211.549C353.988 211.178 354.134 211.251 354.182 211.275C354.86 211.493 355.505 214.139 355.489 215.768C354.739 215.026 352.916 213.033 353.65 211.686L353.738 211.549Z" fill="#71CDFC"/>
<path d="M356.239 219.608C356.166 219.608 356.102 219.567 356.061 219.503C355.424 218.382 355.311 216.986 355.763 215.768C355.803 215.663 355.916 215.607 356.021 215.647C356.126 215.687 356.174 215.8 356.142 215.905C355.731 217.01 355.836 218.277 356.408 219.301C356.465 219.398 356.432 219.519 356.336 219.575C356.303 219.591 356.271 219.599 356.239 219.599V219.608Z" fill="#71CDFC"/>
<path d="M358.731 218.454C358.659 218.454 358.594 218.414 358.554 218.349C357.917 217.228 357.804 215.832 358.255 214.615C358.296 214.51 358.409 214.461 358.513 214.494C358.618 214.534 358.667 214.647 358.634 214.752C358.223 215.857 358.32 217.123 358.901 218.147C358.957 218.244 358.925 218.365 358.828 218.422C358.796 218.438 358.764 218.446 358.731 218.446V218.454Z" fill="#71CDFC"/>
<path d="M361.256 216.704C361.183 216.704 361.119 216.663 361.078 216.599C360.441 215.478 360.328 214.082 360.78 212.864C360.82 212.759 360.933 212.703 361.038 212.743C361.143 212.784 361.191 212.897 361.159 213.001C360.748 214.106 360.853 215.373 361.425 216.397C361.482 216.494 361.449 216.615 361.353 216.671C361.32 216.688 361.288 216.696 361.256 216.696V216.704Z" fill="#71CDFC"/>
<path opacity="0.3" d="M344.438 214.01L347.237 215.574L342.898 226.536L339.623 225.496L344.438 214.01Z" fill="black"/>
<path d="M281.023 166.113L292.404 173.074C307.02 173.8 356.416 174.203 356.562 191.779C361.409 212.493 316.683 210.517 286.943 210.807C286.741 210.807 286.572 210.928 286.451 211.122C286.185 211.533 283.305 213.009 279.619 213.598C275.078 214.316 264.697 214.953 258.026 213.897C246.516 212.074 243.201 201.144 245.403 185.77C246.306 179.454 249.799 174.324 250.855 166.452L281.023 166.121V166.113Z" fill="#263238"/>
<path opacity="0.2" d="M249.831 189.489L249.904 190.207C249.904 190.207 287.524 183.98 310.44 199.039C310.44 199.039 335.275 192.949 340.325 188.311C312.819 202.782 288.185 186.028 288.185 186.028L276.054 180.608C266.141 176.18 256.155 179.559 249.839 189.489H249.831Z" fill="black"/>
<path d="M292.42 213.856L296.768 222.81L321.982 215.962L315.513 202.249L292.42 213.856Z" fill="#EEC1BB"/>
<path d="M302.333 222.616L300.252 219.752C299.784 219.107 299.018 218.744 298.22 218.744C294.767 218.736 294.719 216.873 295.525 213.542C294.832 212.307 293.299 212.953 292.88 213.114L283.547 216.639C282.765 216.929 282.362 217.792 282.644 218.583C282.692 218.72 282.765 218.857 282.854 218.97C285.378 222.447 286.58 224.084 289.726 228.407L299.349 241.628C301.97 245.233 306.148 243.338 305.398 241.604C302.019 233.852 300.543 227.698 300.978 224.221C301.043 223.592 301.583 223.802 302.333 222.616Z" fill="#263238"/>
<path d="M304.632 230.432C305.068 230.577 305.544 230.505 305.923 230.239C306.141 230.118 306.27 229.884 306.253 229.642C306.237 228.287 301.962 225.923 301.478 225.665C301.43 225.633 301.365 225.625 301.309 225.641C301.204 225.673 301.148 225.778 301.172 225.883C301.599 226.915 302.14 227.891 302.777 228.811C303.204 229.537 303.858 230.101 304.632 230.432ZM305.818 229.609C305.818 229.714 305.769 229.811 305.673 229.859C305.39 230.037 305.052 230.093 304.737 230.005C303.535 229.634 302.374 227.48 301.801 226.286C303.535 227.294 305.81 228.867 305.826 229.617L305.818 229.609Z" fill="#71CDFC"/>
<path d="M301.228 226.028C302.454 226.778 305.858 227.738 306.705 226.94C306.891 226.778 307.02 226.472 306.729 225.939C305.527 223.818 301.398 225.536 301.244 225.649C301.172 225.673 301.115 225.738 301.107 225.818C301.123 225.867 301.148 225.899 301.188 225.931L301.22 226.036L301.228 226.028ZM306.39 226.085C306.616 226.472 306.487 226.569 306.439 226.601C305.947 227.117 303.293 226.552 301.825 225.835C302.825 225.48 305.398 224.705 306.302 225.947L306.39 226.085Z" fill="#71CDFC"/>
<path d="M301.567 226.415C301.511 226.415 301.462 226.391 301.422 226.351C300.607 225.504 299.421 225.044 298.252 225.125C298.139 225.141 298.042 225.044 298.034 224.939C298.034 224.826 298.107 224.729 298.22 224.721C299.51 224.624 300.817 225.141 301.712 226.076C301.793 226.157 301.785 226.286 301.712 226.359C301.672 226.399 301.623 226.415 301.575 226.415H301.567Z" fill="#71CDFC"/>
<path d="M301.527 229.166C301.47 229.166 301.422 229.142 301.381 229.101C300.567 228.254 299.381 227.795 298.211 227.875C298.115 227.891 298.002 227.803 297.994 227.69C297.986 227.577 298.074 227.48 298.179 227.472C299.47 227.383 300.776 227.891 301.672 228.827C301.752 228.908 301.744 229.037 301.672 229.109C301.631 229.15 301.583 229.166 301.535 229.166H301.527Z" fill="#71CDFC"/>
<path d="M302.011 232.191C301.954 232.191 301.906 232.166 301.865 232.126C301.051 231.279 299.865 230.819 298.695 230.9C298.599 230.916 298.486 230.827 298.478 230.714C298.478 230.602 298.55 230.505 298.663 230.497C299.954 230.4 301.26 230.916 302.156 231.852C302.236 231.932 302.228 232.061 302.156 232.134C302.115 232.174 302.067 232.191 302.019 232.191H302.011Z" fill="#71CDFC"/>
<path d="M345.237 213.203C345.237 213.203 287.33 180.785 267.439 180.172C247.548 179.559 245.298 194.562 252.614 206.121C259.93 217.672 278.288 212.074 278.288 212.074C278.288 212.074 263.769 208.396 265.568 204.459C267.367 200.523 272.731 206.629 272.731 206.629C272.731 206.629 307.915 221.075 339.308 226.197L345.245 213.203H345.237Z" fill="#263238"/>
<path opacity="0.2" d="M315.4 197.152L334.041 207.912L336.009 207.702L318.361 196.587L315.4 197.152Z" fill="black"/>
<path opacity="0.2" d="M285.822 211.582C285.822 211.582 267.036 204.129 267.246 204.129C267.455 204.129 279.087 212.848 282.894 212.808L285.822 211.582Z" fill="black"/>
<path d="M289.807 110.11C289.807 110.11 292.073 109.586 300.381 119.273C306.019 125.847 314.586 130.687 314.586 130.687C315.32 129.106 328.266 110.11 328.266 110.11L336.501 114.789C336.501 114.789 324.41 146.053 316.546 147.287C308.681 148.513 290.355 132.711 290.355 132.711L289.799 110.118L289.807 110.11Z" fill="#71CDFC"/>
<path d="M244.604 121.604C248.186 132.365 248.355 156.676 247.089 170.106H291.396C298.381 143.31 292.331 124.258 291.734 117.983C290.992 110.344 289.815 110.054 289.815 110.054C289.815 110.054 281.531 109.247 274.32 109.304C268.738 109.513 263.172 110.118 257.679 111.11C253.59 111.796 249.541 112.708 245.548 113.837C243.838 114.321 242.846 116.103 243.33 117.821C243.346 117.878 243.362 117.926 243.378 117.983C243.806 119.185 244.217 120.419 244.604 121.612V121.604Z" fill="#71CDFC"/>
<path opacity="0.2" d="M247.081 170.106C248.137 157.595 256.252 143.165 254.977 130.679C258.744 136.035 259.994 146.545 261.527 158.281C262.027 162.104 275.901 165.968 276.554 169.92L247.081 170.106Z" fill="black"/>
<path d="M254.09 112.538C252.025 115.49 277.425 120.241 277.425 120.241C277.425 120.241 292.291 110.594 274.933 109.094C271.392 108.779 257.357 107.9 254.09 112.538Z" fill="#CD877B"/>
<path d="M278.256 125.71C278.256 125.71 291.944 114.417 284.862 107.65C277.78 100.891 244.435 97.8658 247.258 113.264C247.258 113.264 251.549 111.998 255.881 116.127C265.012 124.863 278.264 125.71 278.264 125.71H278.256Z" fill="#71CDFC"/>
<path opacity="0.2" d="M277.111 122.459C277.111 122.459 284.862 116.442 282.128 111.014C279.401 105.593 263.277 99.6485 251.719 107.126C254.485 108.545 257.066 110.32 259.373 112.401C263.955 116.321 277.102 122.451 277.102 122.451L277.111 122.459Z" fill="black"/>
<path opacity="0.2" d="M274.166 123.226C274.166 123.653 273.828 124.008 273.4 124.008C272.973 124.008 272.618 123.669 272.618 123.242C272.618 122.814 272.957 122.459 273.384 122.459C273.384 122.459 273.4 122.459 273.408 122.459C273.828 122.459 274.166 122.806 274.175 123.226H274.166Z" fill="black"/>
<path opacity="0.2" d="M281.894 120.999C281.894 121.419 281.563 121.766 281.144 121.774H281.136C280.708 121.822 280.321 121.524 280.272 121.096C280.224 120.669 280.523 120.282 280.95 120.233C281.015 120.233 281.071 120.233 281.136 120.233C281.555 120.233 281.902 120.572 281.902 120.999H281.894Z" fill="black"/>
<path d="M289.089 128.751C289.089 129.178 288.75 129.533 288.322 129.533C287.895 129.533 287.54 129.195 287.54 128.767C287.54 128.34 287.879 127.985 288.306 127.985H288.314C288.742 127.985 289.081 128.323 289.089 128.751Z" fill="#263238"/>
<path d="M272.416 132.703C272.416 133.123 272.077 133.47 271.65 133.47C271.23 133.47 270.884 133.131 270.884 132.703C270.884 132.276 271.222 131.937 271.65 131.937C272.069 131.937 272.416 132.276 272.416 132.703Z" fill="#263238"/>
<path d="M288.137 129.074C288.137 129.074 285.136 128.67 284.62 124.839C284.556 122.984 283.039 121.516 281.184 121.524C281.031 121.524 280.894 121.411 280.894 121.258C280.877 121.112 280.99 120.975 281.144 120.967H281.168C283.297 120.967 285.064 122.629 285.185 124.758C285.636 128.13 288.185 128.509 288.202 128.517C288.355 128.533 288.46 128.67 288.452 128.824C288.427 128.977 288.29 129.082 288.137 129.074Z" fill="#263238"/>
<path d="M271.65 132.703C271.497 132.703 271.376 132.582 271.367 132.437C271.303 130.469 272.029 128.549 273.376 127.114C273.908 126.646 274.215 125.984 274.239 125.283C274.183 124.581 273.876 123.911 273.384 123.411C273.255 123.323 273.231 123.145 273.319 123.016C273.408 122.887 273.586 122.863 273.715 122.951C273.739 122.968 273.755 122.984 273.771 123.008C274.376 123.605 274.747 124.403 274.804 125.25C274.788 126.105 274.416 126.92 273.779 127.493C272.553 128.816 271.884 130.574 271.924 132.381C271.924 132.534 271.819 132.663 271.666 132.687L271.642 132.711L271.65 132.703Z" fill="#263238"/>
<path d="M301.43 190.755L303.656 191.158C303.656 191.158 303.035 189.158 310.932 186.536C318.828 183.915 326.685 182.495 326.685 182.495C326.685 182.495 312.416 181.777 312.045 181.777C311.674 181.777 298.47 186.464 298.47 186.464L301.43 190.747V190.755Z" fill="#71CDFC"/>
<path d="M295.784 176.188C296.179 176.188 326.693 182.495 326.693 182.495C326.693 182.495 305.479 181.721 301.438 190.755L276.74 180.616C276.74 180.616 283.66 176.01 295.784 176.196V176.188Z" fill="#EBEBEB"/>
<path d="M347.237 176.188V177.519C347.237 177.519 333.533 175.93 326.685 182.503L326.314 179.35L335.396 175.179L347.237 176.188Z" fill="#71CDFC"/>
<path d="M319.514 170.025C319.514 170.025 302.962 165.645 296.873 176.397L326.685 182.503C326.685 182.503 328.064 174.308 347.237 176.188L319.514 170.025Z" fill="#EBEBEB"/>
<path d="M244.233 114.522C243.531 114.772 238.99 118.572 239.208 127.476C239.531 140.527 242.741 167.565 244.233 170.106C245.725 172.647 285.225 183.713 285.814 184.359C286.403 185.004 288.452 177.462 288.452 177.462L258.034 158.168C258.034 158.168 256.236 130.985 255.518 126.912C254.8 122.838 252.727 111.473 244.233 114.522Z" fill="#71CDFC"/>
<path d="M288.105 178.696L289.807 179.463C289.807 179.463 297.857 178.825 299.897 180.858C301.938 182.891 303.083 192.175 303.083 192.175L285.814 184.359L288.105 178.696Z" fill="#EEC1BB"/>
<path d="M260.244 113.409C260.244 113.409 263.915 115.837 269.093 118.983C270.174 119.636 275.675 122.064 276.877 122.459L279.103 120.548C279.216 120.209 279.28 119.846 279.313 119.475C279.539 116.974 278.724 113.651 276.53 112.433C274.054 111.062 272.755 109.747 272.763 107.327C272.747 105.956 273.005 104.504 273.344 103.069L270.569 101.972L260.075 94.3975C262.027 99.7856 264.431 109.328 260.244 113.401V113.409Z" fill="#EEC1BB"/>
<path opacity="0.2" d="M272.771 107.86C270.053 106.803 266.923 104.714 266.762 101.746C266.705 100.496 266.77 99.2937 266.947 98.5032L273.069 104.311C272.836 105.448 272.803 106.182 272.771 107.852V107.86Z" fill="black"/>
<path d="M256.631 84.4682C259.01 93.5586 259.825 97.4465 265.399 101.496C273.779 107.586 284.394 103.302 284.765 93.8329C285.104 85.3151 281.152 71.877 271.44 69.5056C261.874 67.1664 254.243 75.3777 256.631 84.4682Z" fill="#EEC1BB"/>
<path d="M269.577 85.4279C269.787 86.3958 270.448 87.1137 271.053 87.025C271.666 86.9362 271.989 86.0812 271.779 85.1133C271.569 84.1454 270.908 83.4275 270.303 83.5162C269.69 83.6049 269.367 84.4599 269.577 85.4279Z" fill="#263238"/>
<path d="M278.942 83.8148C279.143 84.7504 279.805 85.4441 280.41 85.3554C281.015 85.2667 281.345 84.4359 281.144 83.4921C280.942 82.5565 280.281 81.8628 279.676 81.9515C279.071 82.0402 278.74 82.871 278.942 83.8148Z" fill="#263238"/>
<path d="M266.592 82.4033C266.713 82.4033 266.826 82.3468 266.907 82.242C268.109 80.6852 269.787 80.8869 269.811 80.8869C270.061 80.9191 270.279 80.7417 270.295 80.4916C270.311 80.2416 270.117 80.0157 269.859 79.9754C269.771 79.9673 267.665 79.7173 266.173 81.6451C266.028 81.8387 266.068 82.129 266.27 82.2904C266.367 82.371 266.488 82.4033 266.601 82.3952L266.592 82.4033Z" fill="#263238"/>
<path d="M280.482 78.7976C280.571 78.7492 280.635 78.6685 280.66 78.5637C280.708 78.3378 280.563 78.0958 280.329 78.0071C278.022 77.1682 276.611 78.3378 276.546 78.3862C276.377 78.5314 276.377 78.7976 276.546 78.9912C276.715 79.1848 276.982 79.2251 277.151 79.0799C277.207 79.0315 278.321 78.1523 280.152 78.8137C280.273 78.8541 280.385 78.846 280.482 78.7976Z" fill="#263238"/>
<path d="M275.635 83.9036C275.635 83.9036 277.651 87.1219 279.643 89.0013C279.99 89.3321 279.91 89.9128 279.49 90.1467C278.417 90.7597 277.022 90.5984 277.022 90.5984L275.635 83.9036Z" fill="#D4827D"/>
<path d="M269.964 83.6131L271.997 82.7581C271.997 82.7581 271.101 84.5326 269.964 83.6131Z" fill="#263238"/>
<path d="M279.361 82.0484L281.394 81.1934C281.394 81.1934 280.498 82.9679 279.361 82.0484Z" fill="#263238"/>
<path d="M260.591 96.5591C229.642 77.3941 264.237 64.3754 264.237 64.3754C278.135 54.6396 278.619 69.4409 278.619 69.4409C285.58 76.7085 275.723 83.0645 275.723 83.0645C279.877 77.0876 273.449 73.5223 273.449 73.5223C274.433 81.4674 266.689 84.581 266.689 84.581C269.722 77.4183 267.786 73.7079 267.786 73.7079C265.568 86.4765 259.18 89.0415 259.18 89.0415L260.591 96.5591Z" fill="#263238"/>
<path d="M255.09 92.4617C256.494 94.1717 258.462 95.067 260.156 95.2041C262.705 95.4139 263.31 91.2679 262.067 88.961C260.946 86.8799 258.309 85.8233 256.01 86.7025C253.743 87.5655 253.485 90.5097 255.09 92.4617Z" fill="#EEC1BB"/>
<path opacity="0.2" d="M261.196 91.1953C261.108 91.1953 261.027 91.1307 261.003 91.042C260.817 90.3161 260.438 89.6385 259.898 89.0981C259.551 88.7432 258.986 88.3076 258.292 88.235C257.663 88.1705 257.034 88.4609 256.792 88.9368C256.744 89.0335 256.623 89.0739 256.518 89.0255C256.421 88.9771 256.381 88.8561 256.429 88.7512C256.752 88.1301 257.534 87.743 258.333 87.8317C259.147 87.9204 259.793 88.4125 260.188 88.8158C260.777 89.4127 261.188 90.1467 261.39 90.9452C261.414 91.0501 261.35 91.163 261.245 91.1872C261.229 91.1872 261.212 91.1872 261.196 91.1872V91.1953Z" fill="black"/>
<path d="M276.861 93.9457C276.167 94.8411 275.53 95.7929 274.973 96.785C274.788 96.7205 274.594 96.6479 274.408 96.5753C271.868 95.6074 270.997 94.3168 270.827 93.1795C270.755 92.6229 270.811 92.0502 270.997 91.5178C271.093 91.2194 271.23 90.929 271.408 90.6628C272.448 91.9857 274.747 93.0665 275.998 93.5989C276.546 93.8006 276.861 93.9457 276.861 93.9457Z" fill="#263238"/>
<path d="M276.038 93.5828L275.457 94.4055C273.07 93.486 271.513 92.5342 271.037 91.5017C271.134 91.2033 271.271 90.9129 271.448 90.6467C272.497 91.9776 274.788 93.0504 276.038 93.5828Z" fill="white"/>
<path d="M274.441 96.5591C271.9 95.5912 271.029 94.3006 270.859 93.1633C271.819 93.5505 272.707 94.099 273.473 94.7927C273.973 95.2686 274.312 95.8816 274.441 96.5511V96.5591Z" fill="#C15854"/>
<path d="M209.097 286.911L219.462 305.866L228.512 303.172L220.293 281.176L209.097 286.911Z" fill="#895555"/>
<path d="M221.777 316.078L228.246 314.699C228.246 314.699 228.617 313.376 229.98 313.045C230.747 312.86 232.779 313.545 232.779 313.545L250.605 309.891C250.605 309.891 250.355 308.665 250.049 308.181C249.678 307.584 249.283 307.1 248.879 306.697C247.468 305.31 245.314 305.027 243.709 304.874C241.023 304.616 233.279 302.567 233.279 302.567C233.279 302.567 231.271 301.849 229.609 299.567C228.682 298.3 227.448 297.655 226.657 297.719C225.044 297.84 224.366 298.954 224.447 300.462L224.544 302.212C223.536 303.398 221.947 303.672 220.487 302.793C220.487 302.793 216.736 301.519 217.276 303.156C217.583 304.092 219.115 308.23 220.228 311.529C220.487 312.295 220.737 313.029 220.946 313.666C221.422 315.086 221.753 316.062 221.753 316.062L221.777 316.078Z" fill="#263238"/>
<path d="M237.433 303.519C237.337 303.463 237.216 303.479 237.135 303.559C236.764 303.914 236.49 304.358 236.345 304.882C236.272 305.156 236.708 305.31 236.78 305.035C236.909 304.576 237.151 304.18 237.474 303.874C237.579 303.769 237.571 303.608 237.442 303.527L237.433 303.519Z" fill="#71CDFC"/>
<path d="M235.909 303.059C235.812 303.003 235.691 303.019 235.611 303.099C235.239 303.454 234.965 303.898 234.82 304.422C234.747 304.696 235.183 304.85 235.256 304.575C235.385 304.116 235.627 303.72 235.949 303.414C236.054 303.309 236.046 303.148 235.917 303.067L235.909 303.059Z" fill="#71CDFC"/>
<path d="M234.344 302.664C234.247 302.608 234.126 302.624 234.046 302.704C233.675 303.059 233.4 303.503 233.255 304.027C233.183 304.301 233.618 304.455 233.691 304.18C233.82 303.721 234.062 303.325 234.384 303.019C234.489 302.914 234.481 302.753 234.352 302.672L234.344 302.664Z" fill="#71CDFC"/>
<path opacity="0.2" d="M229.98 313.045C230.747 312.86 232.779 313.545 232.779 313.545L250.605 309.891C250.605 309.891 250.355 308.665 250.049 308.181C249.879 307.907 249.702 307.665 249.525 307.431L220.842 313.319C220.882 313.432 220.922 313.561 220.963 313.674C221.438 315.094 221.769 316.07 221.769 316.07L228.238 314.691C228.238 314.691 228.609 313.368 229.972 313.037L229.98 313.045Z" fill="white"/>
<path d="M234.183 303.116L234.126 302.93C233.949 302.325 233.763 301.704 233.691 301.067C233.61 300.341 233.691 299.696 233.925 299.147C234.094 298.768 234.336 298.542 234.61 298.502C234.973 298.454 235.288 298.728 235.457 299.002C235.764 299.502 235.844 300.155 235.675 300.809C235.514 301.446 234.578 302.624 234.296 302.962L234.175 303.108L234.183 303.116ZM234.699 298.704C234.699 298.704 234.659 298.704 234.643 298.704C234.36 298.744 234.191 299.05 234.11 299.228C233.884 299.736 233.812 300.349 233.892 301.043C233.957 301.599 234.11 302.156 234.272 302.688C234.804 302.019 235.377 301.204 235.49 300.76C235.643 300.164 235.57 299.559 235.296 299.115C235.167 298.905 234.949 298.704 234.707 298.704H234.699Z" fill="#71CDFC"/>
<path d="M233.981 303.019C233.408 303.019 232.142 302.987 231.602 302.745C230.989 302.47 230.529 301.995 230.335 301.446C230.23 301.14 230.206 300.72 230.472 300.47C230.674 300.276 231.005 300.228 231.408 300.333C231.981 300.486 232.529 300.825 233.054 301.349C233.505 301.809 233.876 302.341 234.231 302.858L234.336 303.011H234.142C234.094 303.011 234.038 303.011 233.973 303.011L233.981 303.019ZM231.013 300.478C230.868 300.478 230.722 300.51 230.609 300.615C230.408 300.801 230.432 301.132 230.521 301.382C230.698 301.882 231.118 302.309 231.682 302.567C232.102 302.753 233.094 302.825 233.949 302.825C233.626 302.366 233.295 301.898 232.9 301.503C232.408 301.011 231.884 300.68 231.352 300.543C231.263 300.518 231.142 300.494 231.013 300.494V300.478Z" fill="#71CDFC"/>
<path d="M166.25 300.809L161.515 321.894L170.09 325.846L178.438 303.898L166.25 300.809Z" fill="#895555"/>
<path d="M156.506 331.089L162.274 334.332C162.274 334.332 163.427 333.581 164.669 334.235C165.371 334.598 166.444 336.461 166.444 336.461L182.237 345.487C182.237 345.487 182.858 344.406 182.955 343.833C183.068 343.14 183.1 342.519 183.06 341.954C182.915 339.978 181.487 338.34 180.382 337.171C178.535 335.211 174.074 328.548 174.074 328.548C174.074 328.548 173.042 326.677 173.3 323.87C173.445 322.305 172.937 321.014 172.3 320.53C171.001 319.554 169.759 319.942 168.831 321.135L167.751 322.515C166.21 322.741 164.831 321.902 164.322 320.272C164.322 320.272 162.346 316.836 161.669 318.425C161.282 319.329 159.701 323.45 158.354 326.669C158.039 327.419 157.741 328.129 157.482 328.75C156.902 330.129 156.506 331.081 156.506 331.081V331.089Z" fill="#263238"/>
<path d="M176.559 331.992C176.526 331.887 176.422 331.823 176.309 331.823C175.801 331.847 175.292 332 174.841 332.291C174.607 332.444 174.833 332.847 175.067 332.694C175.47 332.436 175.913 332.299 176.357 332.274C176.51 332.274 176.607 332.137 176.559 331.992Z" fill="#71CDFC"/>
<path d="M175.712 330.645C175.68 330.54 175.575 330.476 175.462 330.476C174.954 330.5 174.445 330.653 173.994 330.944C173.76 331.097 173.986 331.5 174.22 331.347C174.623 331.089 175.058 330.952 175.51 330.928C175.663 330.928 175.76 330.79 175.712 330.645Z" fill="#71CDFC"/>
<path d="M174.808 329.314C174.776 329.21 174.671 329.145 174.558 329.145C174.05 329.169 173.542 329.322 173.09 329.613C172.856 329.766 173.082 330.169 173.316 330.016C173.719 329.758 174.155 329.621 174.607 329.597C174.76 329.597 174.857 329.46 174.808 329.314Z" fill="#71CDFC"/>
<path opacity="0.2" d="M164.669 334.235C165.371 334.598 166.444 336.461 166.444 336.461L182.237 345.487C182.237 345.487 182.858 344.406 182.955 343.833C183.003 343.511 183.036 343.212 183.052 342.922L157.619 328.403C157.571 328.516 157.523 328.645 157.474 328.75C156.894 330.129 156.498 331.081 156.498 331.081L162.266 334.323C162.266 334.323 163.419 333.573 164.661 334.227L164.669 334.235Z" fill="white"/>
<path d="M174.381 329.54L174.462 329.371C174.728 328.798 174.994 328.209 175.365 327.685C175.784 327.08 176.268 326.653 176.809 326.402C177.18 326.233 177.519 326.217 177.752 326.37C178.059 326.572 178.115 326.991 178.059 327.306C177.962 327.879 177.591 328.427 177.035 328.806C176.486 329.177 175.01 329.443 174.574 329.516L174.389 329.548L174.381 329.54ZM177.357 326.459C177.18 326.459 177.002 326.523 176.889 326.58C176.381 326.814 175.93 327.225 175.526 327.798C175.204 328.258 174.954 328.774 174.72 329.282C175.567 329.129 176.535 328.895 176.914 328.637C177.422 328.29 177.769 327.79 177.857 327.274C177.898 327.015 177.865 326.685 177.64 326.54C177.559 326.483 177.462 326.467 177.365 326.467L177.357 326.459Z" fill="#71CDFC"/>
<path d="M174.566 329.572L174.421 329.451C174.082 329.161 172.961 328.169 172.687 327.564C172.413 326.951 172.372 326.289 172.59 325.749C172.711 325.451 172.969 325.12 173.34 325.112H173.364C173.639 325.112 173.913 325.297 174.131 325.628C174.461 326.12 174.647 326.741 174.695 327.475C174.736 328.12 174.663 328.766 174.582 329.387L174.558 329.572H174.566ZM173.364 325.305H173.348C173.074 325.313 172.872 325.58 172.776 325.822C172.582 326.314 172.614 326.919 172.864 327.475C173.05 327.895 173.76 328.596 174.397 329.169C174.461 328.612 174.518 328.04 174.486 327.483C174.445 326.79 174.268 326.201 173.961 325.733C173.857 325.572 173.639 325.305 173.364 325.305Z" fill="#71CDFC"/>
<path d="M174.526 163.072C174.526 163.072 177.519 189.706 178.317 191.134C181.019 195.966 198.934 204.249 198.934 204.249L208.065 202.338L214.606 207.799L210.291 211.178L205.226 209.267C202.467 209.759 199.66 210.009 196.853 210.001C192.134 210.001 169.388 204.233 165.597 197.893C161.798 191.553 160.055 162.185 160.055 162.185L174.526 163.072Z" fill="#895555"/>
<path d="M159.676 173.542C159.676 173.542 152.659 150.15 161.403 143.657C170.146 137.164 177.099 169.323 177.099 169.323L159.676 173.542Z" fill="#71CDFC"/>
<path d="M165.21 216.324L165.145 185.326L164.476 142.883L147.037 140.39L132.179 140.253L112.078 146.504L111.659 156.918C111.659 156.918 113.732 204.742 113.619 206.185C113.474 207.952 113.03 221.075 113.03 221.075C135.946 226.294 165.573 217.914 165.21 216.333V216.324Z" fill="#71CDFC"/>
<path opacity="0.2" d="M164.887 172.284L163.951 152.288L168.42 171.429L164.887 172.284Z" fill="black"/>
<path opacity="0.2" d="M126.113 175.196C126.678 175.083 129.533 174.147 129.533 174.147L123.185 156.482L131.905 176.018L126.662 178.107L126.113 175.187V175.196Z" fill="black"/>
<path d="M123.653 160.547C123.653 160.547 128.098 190.118 130.663 192.876C135.002 197.547 156.482 209.936 156.482 209.936L167.202 206.177C167.952 205.927 168.783 206.064 169.396 206.532L176.728 212.13L176.026 212.719C175.728 212.977 175.284 213.025 174.929 212.848L173.792 212.283L175.066 213.534L174.663 213.872C174.26 214.211 173.703 214.332 173.187 214.195L169.912 213.316L172.937 215.332C172.259 215.905 171.324 216.099 170.461 215.857L165.661 214.493C162.387 215.244 159.055 215.719 155.7 215.921C150.053 216.268 123.387 206.952 118.41 200.128C113.442 193.304 108.311 164.976 108.311 164.976L123.637 160.555L123.653 160.547Z" fill="#895555"/>
<path d="M109.465 180.213C109.465 180.213 102.818 153.417 111.562 146.924C120.306 140.431 128.969 174.332 128.969 174.332L109.465 180.213Z" fill="#71CDFC"/>
<path d="M181.035 214.276H147.045C147.053 215.582 148.505 216.631 150.279 216.623H205.653C207.42 216.607 208.839 215.558 208.831 214.276H181.035Z" fill="#263238"/>
<path d="M206.161 216.494H175.107C174.574 216.494 174.139 216.139 174.147 215.712C174.147 215.631 174.163 215.55 174.195 215.478L188.013 183.802C188.359 182.899 189.4 182.278 190.578 182.278H221.648C222.172 182.278 222.6 182.616 222.6 183.044C222.6 183.133 222.584 183.221 222.544 183.302L208.726 214.978C208.371 215.881 207.339 216.494 206.161 216.502V216.494Z" fill="#263238"/>
<path opacity="0.7" d="M221.648 182.27H190.578C189.4 182.27 188.359 182.891 188.013 183.794L174.72 214.276H147.045C147.053 215.583 148.505 216.631 150.279 216.623H205.653C206.21 216.623 206.726 216.502 207.186 216.317C207.912 216.075 208.484 215.591 208.734 214.961L222.552 183.286C222.592 183.205 222.608 183.116 222.608 183.028C222.608 182.608 222.18 182.261 221.656 182.261L221.648 182.27Z" fill="white"/>
<path d="M202.983 199.136C202.314 200.652 200.951 201.701 199.934 201.483C198.918 201.265 198.652 199.886 199.297 198.361C199.95 196.837 201.322 195.82 202.338 196.03C203.354 196.24 203.653 197.571 202.975 199.136H202.983Z" fill="white"/>
<g opacity="0.3">
<path d="M188.004 183.802L174.712 214.284H176.147L190.569 182.278C189.392 182.278 188.351 182.899 188.004 183.802Z" fill="black"/>
</g>
<path d="M156.119 103.472L157.103 104.045C158.249 104.069 159.329 104.932 159.596 106.053C159.862 107.166 159.297 108.433 158.289 108.981C158.136 109.062 157.958 109.15 157.91 109.312C157.821 109.578 158.103 109.796 158.305 109.981C159.338 110.877 159.208 112.643 158.281 113.643C157.353 114.643 155.877 114.966 154.522 114.853C154.167 111.014 156.45 107.303 156.119 103.472Z" fill="#263238"/>
<path d="M126.912 114.272C125.452 114.345 123.992 113.441 123.403 112.102C123.242 111.731 123.137 111.32 123.201 110.925C123.387 109.844 124.621 109.352 125.678 109.054C124.5 108.763 123.71 107.594 123.484 106.408C123.379 105.867 123.371 105.287 123.548 104.762C123.847 103.875 124.637 103.23 125.5 102.883C126.363 102.536 127.307 102.439 128.235 102.351L133.583 119.322C132.389 119.588 131.147 119.749 129.945 119.547C128.735 119.346 127.557 118.725 126.888 117.708C126.218 116.684 126.154 115.232 126.912 114.272Z" fill="#263238"/>
<path d="M129.904 140.963C134.841 136.753 134.607 125.073 133.72 118.725L147.795 130.921C147.456 131.639 147.166 132.381 146.932 133.139C146.456 134.494 146.335 135.946 146.585 137.358C146.835 138.527 148.142 141.778 148.142 141.778C148.142 141.778 148.844 145.416 139.277 145.238C135.067 145.617 129.921 140.963 129.921 140.963H129.904Z" fill="#895555"/>
<path opacity="0.2" d="M136.244 125.186C135.405 132.599 142.826 136.188 146.585 137.374C146.335 135.962 146.456 134.51 146.932 133.155L136.244 125.186Z" fill="black"/>
<path d="M131.308 113.183C133.042 121.943 133.841 126.912 139.043 130.816C146.859 136.68 157.305 131.332 158.305 122.209C159.2 113.998 156.208 101.06 146.835 98.7774C137.599 96.527 129.574 104.432 131.308 113.192V113.183Z" fill="#895555"/>
<path d="M128.743 102.714C129.34 97.6884 141.883 96.0268 145.722 98.0594C146.295 98.366 139.35 102.948 139.777 102.73L136.438 104.359C135.881 104.311 134.905 105.061 134.575 106.755C134.575 106.755 136.785 120.241 133.357 124.669C129.985 123.572 129.082 118.233 127.654 115.168C125.524 110.602 122.798 103.859 128.751 102.722L128.743 102.714Z" fill="#263238"/>
<path d="M128.703 121.008C129.735 123.185 131.703 124.686 133.623 125.331C136.511 126.291 137.14 123.282 136.511 120.532C135.946 118.055 134.784 115.103 131.808 115.337C128.872 115.563 127.525 118.523 128.703 121.016V121.008Z" fill="#895555"/>
<path d="M143.536 113.627C143.657 114.531 144.246 115.192 144.859 115.111C145.464 115.031 145.859 114.224 145.738 113.321C145.617 112.417 145.028 111.756 144.415 111.836C143.81 111.917 143.415 112.724 143.536 113.627Z" fill="#263238"/>
<path d="M152.683 113.103C152.804 114.006 153.393 114.668 154.006 114.587C154.619 114.506 155.006 113.7 154.885 112.796C154.764 111.893 154.175 111.231 153.562 111.312C152.957 111.393 152.562 112.199 152.683 113.103Z" fill="#263238"/>
<path d="M150.771 112.949C150.771 112.949 154.312 117.063 155.506 118.765C154.361 120.064 152.062 119.83 152.062 119.83L150.771 112.949Z" fill="#6D3939"/>
<path d="M141.818 110.094C141.963 110.134 142.133 110.094 142.246 109.981C143.625 108.618 145.214 108.9 145.23 108.9C145.464 108.949 145.698 108.795 145.746 108.561C145.795 108.328 145.641 108.11 145.407 108.061C145.327 108.045 143.334 107.69 141.616 109.384C141.447 109.554 141.447 109.82 141.616 109.989C141.673 110.046 141.737 110.078 141.81 110.094H141.818Z" fill="#263238"/>
<path opacity="0.2" d="M134.954 120.612C134.865 120.612 134.784 120.548 134.76 120.459C134.575 119.741 134.204 119.088 133.679 118.555C133.341 118.209 132.784 117.781 132.106 117.708C131.493 117.644 130.872 117.934 130.638 118.394C130.59 118.491 130.469 118.531 130.364 118.483C130.267 118.434 130.227 118.313 130.275 118.209C130.59 117.596 131.364 117.224 132.147 117.305C132.953 117.394 133.583 117.878 133.97 118.273C134.542 118.854 134.954 119.58 135.155 120.362C135.18 120.467 135.115 120.58 135.01 120.604C134.994 120.604 134.978 120.604 134.962 120.604L134.954 120.612Z" fill="black"/>
<path d="M157.321 108.739C157.402 108.715 157.474 108.658 157.523 108.594C157.668 108.408 157.636 108.134 157.442 107.997C155.514 106.577 153.619 107.255 153.53 107.271C153.304 107.352 153.183 107.602 153.264 107.82C153.344 108.037 153.595 108.15 153.82 108.078C153.901 108.045 155.369 107.545 156.918 108.683C157.039 108.771 157.192 108.787 157.329 108.739H157.321Z" fill="#263238"/>
<path d="M125.799 98.7129C126.259 96.5835 128.936 95.8252 131.058 96.0108C130.671 93.5183 133.857 91.7035 135.97 91.5341C138.18 91.3566 139.067 92.1229 139.067 92.1229C138.898 92.1794 139.592 90.8081 140.052 90.2435C141.745 88.1625 144.698 87.2671 147.23 88.0495C149.763 88.84 151.731 91.2679 152.022 93.962C153.232 92.4617 155.676 92.2358 157.127 93.5022C158.579 94.7686 158.757 97.2771 157.498 98.7371C159.12 98.6564 160.66 100.157 160.66 101.818C160.66 103.488 159.112 104.972 157.49 104.875C157.603 106.739 157.668 109.07 157.781 110.933L154.458 104.416C153.094 104.109 152.78 103.553 152.352 102.197C151.594 104.053 150.062 104.077 148.102 104.222C146.141 104.367 144.141 103.303 143.125 101.576C142.326 103.512 140.568 105.109 138.519 105.287C136.47 105.464 134.3 103.94 134.067 101.843C133.066 103.762 130.59 104.714 128.598 103.956C126.605 103.198 125.339 100.818 125.799 98.6887V98.7129Z" fill="#263238"/>
<path d="M151.723 122.83C150.965 123.806 150.287 124.831 149.682 125.904C149.481 125.831 149.271 125.758 149.069 125.678C146.319 124.629 145.383 123.234 145.19 122.008C145.109 121.403 145.174 120.79 145.367 120.209C145.472 119.878 145.625 119.572 145.811 119.281C146.94 120.709 149.424 121.887 150.779 122.459C151.376 122.677 151.707 122.838 151.707 122.838L151.723 122.83Z" fill="#263238"/>
<path d="M150.82 122.435L150.191 123.322C147.609 122.33 145.916 121.29 145.399 120.185C145.504 119.854 145.657 119.547 145.843 119.257C146.98 120.701 149.457 121.862 150.812 122.435H150.82Z" fill="white"/>
<path d="M149.102 125.653C146.351 124.605 145.416 123.209 145.222 121.983C146.262 122.403 147.214 123 148.045 123.75C148.585 124.258 148.948 124.928 149.094 125.653H149.102Z" fill="#C15854"/>
<path d="M199.684 246.484C199.345 249.863 198.611 254.485 197.732 257.76C195.337 267.02 192.602 275.925 189.158 285.128C182.503 303.301 177.131 320.167 177.131 320.167L160.233 315.102C160.233 315.102 171.404 262.519 178.938 257.139H132.736C131.873 257.139 131.009 257.083 130.154 256.962C138.116 255.929 150.513 251.025 162.024 246.121C172.187 241.773 181.697 237.434 186.851 235.796C193.159 238.49 200.176 241.184 199.692 246.484H199.684Z" fill="#263238"/>
<path opacity="0.6" d="M186.859 235.844C181.697 237.522 172.187 241.83 162.032 246.169C150.521 251.073 138.124 255.977 130.163 257.01C116.757 255.219 111.715 239.248 125.734 220.825C134.833 220.825 143.98 229.513 143.98 229.513C143.98 229.513 171.493 229.375 186.859 235.844Z" fill="black"/>
<path d="M224.479 292.428L213.308 299.196C213.308 299.196 203.983 279.619 195.07 257.534C195.95 254.251 196.571 250.912 196.909 247.532C197.393 242.233 193.183 238.498 186.875 235.861C181.713 237.538 172.203 241.846 162.048 246.185C150.537 251.089 138.14 255.994 130.179 257.026C129.267 257.147 128.348 257.212 127.42 257.228C112.127 257.228 106.852 243.822 113.022 221.076C122.121 221.076 137.704 220.091 137.704 220.091C137.704 220.091 167.775 212.864 189.408 215.324C199.942 216.567 208.468 224.463 210.509 234.877C216.083 262.487 224.471 292.428 224.471 292.428H224.479Z" fill="#263238"/>
<path d="M226.246 293.251L213.308 299.196C213.308 299.196 203.983 279.619 195.07 257.534C195.95 254.251 196.571 250.912 196.909 247.532C197.393 242.233 193.183 238.498 186.875 235.861C181.713 237.538 172.203 241.846 162.048 246.185C150.537 251.089 138.14 255.994 130.179 257.026C129.267 257.147 128.348 257.212 127.42 257.228C112.127 257.228 106.852 243.822 113.022 221.076C122.121 221.076 137.704 220.091 137.704 220.091C137.704 220.091 167.775 212.864 189.408 215.324C199.942 216.567 208.468 224.463 210.509 234.877C216.083 262.487 226.238 293.251 226.238 293.251H226.246Z" fill="#263238"/>
<path opacity="0.2" d="M199.684 246.484C199.345 249.863 198.611 254.485 197.732 257.76C195.337 267.02 192.602 275.925 189.158 285.128C182.503 303.301 177.131 320.167 177.131 320.167L160.233 315.102C160.233 315.102 171.404 262.519 178.938 257.139H132.736C131.873 257.139 131.009 257.083 130.154 256.962C138.116 255.929 150.513 251.025 162.024 246.121C172.187 241.773 181.697 237.434 186.851 235.796C193.159 238.49 200.176 241.184 199.692 246.484H199.684Z" fill="black"/>
<path d="M148.142 190.892C150.409 190.892 152.247 185.031 152.247 177.801C152.247 170.571 150.409 164.71 148.142 164.71C145.874 164.71 144.036 170.571 144.036 177.801C144.036 185.031 145.874 190.892 148.142 190.892Z" fill="white"/>
</svg>
